<svg id="Layer_1" data-name="Layer 1" xmlns="http://www.w3.org/2000/svg" viewBox="0 0 700 294.13"><defs><style>.cls-1{fill:none;stroke:#263852;stroke-linecap:round;stroke-linejoin:round;stroke-width:1.5px;}.cls-2{fill:#263852;}.cls-3{fill:#8494a7;}.cls-4{fill:#76ccd7;}.cls-5{fill:#fff;}.cls-6{fill:#128acb;}</style></defs><line class="cls-1" x1="146.47" y1="167.98" x2="146.47" y2="178.37"/><polygon class="cls-2" points="141.98 177.06 146.47 184.83 150.96 177.06 141.98 177.06"/><line class="cls-1" x1="138.47" y1="140.68" x2="138.47" y2="166.72"/><rect class="cls-3" x="30.08" y="104.17" width="222.13" height="38.3" rx="4.21"/><rect class="cls-4" x="433.36" y="104.94" width="222.13" height="38.3" rx="4.21"/><path class="cls-5" d="M75.92,129.53V117.36h8.21v1.43h-6.6v3.77h5.71V124H77.53v5.53Z"/><path class="cls-5" d="M91.81,129.53v-1.3a3.22,3.22,0,0,1-2.8,1.49,3.73,3.73,0,0,1-1.46-.29,2.35,2.35,0,0,1-1-.76,2.67,2.67,0,0,1-.46-1.1,7.79,7.79,0,0,1-.09-1.4v-5.46h1.49v4.89a8.87,8.87,0,0,0,.09,1.58,1.5,1.5,0,0,0,.6.92,1.81,1.81,0,0,0,1.13.34,2.47,2.47,0,0,0,1.26-.35,1.91,1.91,0,0,0,.83-.93,4.58,4.58,0,0,0,.25-1.73v-4.72h1.49v8.82Z"/><path class="cls-5" d="M95.48,129.53v-8.82h1.35V122a3.16,3.16,0,0,1,2.8-1.45,3.74,3.74,0,0,1,1.47.29,2.32,2.32,0,0,1,1,.75,3,3,0,0,1,.46,1.1,8,8,0,0,1,.09,1.46v5.42h-1.5v-5.37a4.16,4.16,0,0,0-.17-1.36,1.4,1.4,0,0,0-.62-.72,2,2,0,0,0-1-.27,2.43,2.43,0,0,0-1.65.6,3,3,0,0,0-.69,2.3v4.82Z"/><path class="cls-5" d="M110.69,126.3l1.47.19a3.84,3.84,0,0,1-1.23,2.38,3.61,3.61,0,0,1-2.44.85,3.77,3.77,0,0,1-2.91-1.18,4.82,4.82,0,0,1-1.1-3.39,6.26,6.26,0,0,1,.47-2.5,3.32,3.32,0,0,1,1.44-1.6,4.28,4.28,0,0,1,2.11-.54,3.63,3.63,0,0,1,2.35.73A3.3,3.3,0,0,1,112,123.3l-1.45.22a2.43,2.43,0,0,0-.74-1.33,1.88,1.88,0,0,0-1.27-.45,2.32,2.32,0,0,0-1.84.81,3.84,3.84,0,0,0-.7,2.56,3.94,3.94,0,0,0,.68,2.58,2.19,2.19,0,0,0,1.77.81,2.08,2.08,0,0,0,1.47-.54A2.69,2.69,0,0,0,110.69,126.3Z"/><path class="cls-5" d="M116.7,128.19l.22,1.32a5.44,5.44,0,0,1-1.13.13,2.44,2.44,0,0,1-1.26-.26,1.47,1.47,0,0,1-.64-.67,5.46,5.46,0,0,1-.18-1.77v-5.07h-1.09v-1.16h1.09v-2.18l1.49-.9v3.08h1.5v1.16h-1.5V127a2.39,2.39,0,0,0,.08.82.59.59,0,0,0,.25.29,1,1,0,0,0,.51.11A4.7,4.7,0,0,0,116.7,128.19Z"/><path class="cls-5" d="M118.17,119.07v-1.71h1.49v1.71Zm0,10.46v-8.82h1.49v8.82Z"/><path class="cls-5" d="M121.38,125.12a4.58,4.58,0,0,1,1.36-3.63,4.14,4.14,0,0,1,2.78-1,4,4,0,0,1,3,1.19,4.53,4.53,0,0,1,1.15,3.29,5.83,5.83,0,0,1-.51,2.68,3.64,3.64,0,0,1-1.49,1.52,4.39,4.39,0,0,1-2.12.53,4,4,0,0,1-3-1.18A4.74,4.74,0,0,1,121.38,125.12Zm1.54,0a3.69,3.69,0,0,0,.74,2.53,2.45,2.45,0,0,0,3.71,0,3.87,3.87,0,0,0,.74-2.58,3.62,3.62,0,0,0-.75-2.48,2.46,2.46,0,0,0-3.7,0A3.68,3.68,0,0,0,122.92,125.12Z"/><path class="cls-5" d="M131.39,129.53v-8.82h1.35V122a3.15,3.15,0,0,1,2.8-1.45,3.74,3.74,0,0,1,1.47.29,2.32,2.32,0,0,1,1,.75,3,3,0,0,1,.46,1.1,8,8,0,0,1,.09,1.46v5.42h-1.5v-5.37a4.16,4.16,0,0,0-.17-1.36,1.45,1.45,0,0,0-.62-.72,2,2,0,0,0-1-.27,2.43,2.43,0,0,0-1.65.6,3,3,0,0,0-.69,2.3v4.82Z"/><path class="cls-5" d="M146.6,128.44a5.58,5.58,0,0,1-1.6,1,4.48,4.48,0,0,1-1.65.29,3.16,3.16,0,0,1-2.23-.71,2.32,2.32,0,0,1-.78-1.81,2.45,2.45,0,0,1,.29-1.18,2.4,2.4,0,0,1,.78-.86,3.38,3.38,0,0,1,1.07-.49,10,10,0,0,1,1.33-.22,13.86,13.86,0,0,0,2.66-.52c0-.2,0-.33,0-.39a1.67,1.67,0,0,0-.42-1.29,2.54,2.54,0,0,0-1.7-.5,2.62,2.62,0,0,0-1.56.37,2.25,2.25,0,0,0-.74,1.3l-1.46-.2a3.62,3.62,0,0,1,.65-1.51,3,3,0,0,1,1.32-.89,5.88,5.88,0,0,1,2-.31,5.22,5.22,0,0,1,1.84.27,2.49,2.49,0,0,1,1,.66,2.4,2.4,0,0,1,.46,1,8.33,8.33,0,0,1,.08,1.38v2a22.53,22.53,0,0,0,.09,2.64,3.3,3.3,0,0,0,.38,1.06H146.9A3,3,0,0,1,146.6,128.44Zm-.13-3.34a11.16,11.16,0,0,1-2.44.57,5.43,5.43,0,0,0-1.3.29,1.43,1.43,0,0,0-.59.49,1.31,1.31,0,0,0,.25,1.71,2,2,0,0,0,1.32.39,3.11,3.11,0,0,0,1.54-.37,2.39,2.39,0,0,0,1-1,3.57,3.57,0,0,0,.24-1.49Z"/><path class="cls-5" d="M150.27,129.53V117.36h1.49v12.17Z"/><path class="cls-5" d="M162.06,128.19l.22,1.32a5.44,5.44,0,0,1-1.13.13,2.46,2.46,0,0,1-1.26-.26,1.4,1.4,0,0,1-.63-.67,5.46,5.46,0,0,1-.18-1.77v-5.07H158v-1.16h1.1v-2.18l1.48-.9v3.08h1.5v1.16h-1.5V127a2.68,2.68,0,0,0,.08.82.61.61,0,0,0,.26.29,1,1,0,0,0,.51.11A4.7,4.7,0,0,0,162.06,128.19Z"/><path class="cls-5" d="M169.56,126.69l1.54.19a3.75,3.75,0,0,1-1.35,2.1,4.05,4.05,0,0,1-2.52.74,4,4,0,0,1-3.07-1.19,4.61,4.61,0,0,1-1.13-3.34,4.88,4.88,0,0,1,1.14-3.45,3.88,3.88,0,0,1,3-1.23,3.78,3.78,0,0,1,2.89,1.2,4.8,4.8,0,0,1,1.12,3.39c0,.09,0,.22,0,.4h-6.57a3.35,3.35,0,0,0,.82,2.22,2.43,2.43,0,0,0,1.84.78,2.3,2.3,0,0,0,1.41-.44A2.88,2.88,0,0,0,169.56,126.69Zm-4.91-2.42h4.93a3,3,0,0,0-.57-1.67,2.29,2.29,0,0,0-1.85-.86,2.37,2.37,0,0,0-1.73.69A2.71,2.71,0,0,0,164.65,124.27Z"/><path class="cls-5" d="M172.38,126.89l1.48-.23a2,2,0,0,0,.69,1.36,2.4,2.4,0,0,0,1.59.48,2.33,2.33,0,0,0,1.53-.42,1.27,1.27,0,0,0,.5-1,.91.91,0,0,0-.44-.79,6.07,6.07,0,0,0-1.53-.51,14.2,14.2,0,0,1-2.28-.72,2.19,2.19,0,0,1-1.29-2,2.26,2.26,0,0,1,.27-1.09,2.57,2.57,0,0,1,.73-.84,3.24,3.24,0,0,1,1-.43,4.59,4.59,0,0,1,1.3-.18,5.11,5.11,0,0,1,1.82.3,2.51,2.51,0,0,1,1.16.81,3.2,3.2,0,0,1,.51,1.36l-1.46.2a1.62,1.62,0,0,0-.58-1.06,2.13,2.13,0,0,0-1.35-.38,2.45,2.45,0,0,0-1.47.34,1,1,0,0,0-.43.8.84.84,0,0,0,.18.52,1.34,1.34,0,0,0,.57.4c.15,0,.59.18,1.32.38a18,18,0,0,1,2.21.69,2.09,2.09,0,0,1,1.34,2.07,2.5,2.5,0,0,1-.43,1.4,2.8,2.8,0,0,1-1.26,1,4.61,4.61,0,0,1-1.86.36,4.11,4.11,0,0,1-2.62-.71A3.35,3.35,0,0,1,172.38,126.89Z"/><path class="cls-5" d="M184.74,128.19l.22,1.32a5.44,5.44,0,0,1-1.13.13,2.46,2.46,0,0,1-1.26-.26,1.4,1.4,0,0,1-.63-.67,5.1,5.1,0,0,1-.19-1.77v-5.07h-1.09v-1.16h1.09v-2.18l1.49-.9v3.08h1.5v1.16h-1.5V127a2.39,2.39,0,0,0,.08.82.61.61,0,0,0,.26.29,1,1,0,0,0,.5.11A4.7,4.7,0,0,0,184.74,128.19Z"/><path class="cls-5" d="M186.21,119.07v-1.71h1.49v1.71Zm0,10.46v-8.82h1.49v8.82Z"/><path class="cls-5" d="M190,129.53v-8.82h1.34V122a3.18,3.18,0,0,1,2.81-1.45,3.66,3.66,0,0,1,1.46.29,2.26,2.26,0,0,1,1,.75,2.8,2.8,0,0,1,.47,1.1,8.22,8.22,0,0,1,.08,1.46v5.42h-1.49v-5.37a3.86,3.86,0,0,0-.18-1.36,1.38,1.38,0,0,0-.61-.72,2,2,0,0,0-1.05-.27,2.42,2.42,0,0,0-1.64.6,3,3,0,0,0-.7,2.3v4.82Z"/><path class="cls-5" d="M199.16,130.26l1.45.21a1.36,1.36,0,0,0,.51,1,2.47,2.47,0,0,0,1.52.42,2.65,2.65,0,0,0,1.6-.42,2,2,0,0,0,.76-1.16,9,9,0,0,0,.11-1.92,3.06,3.06,0,0,1-2.44,1.16,3.31,3.31,0,0,1-2.81-1.32,5,5,0,0,1-1-3.14,5.77,5.77,0,0,1,.46-2.33,3.63,3.63,0,0,1,1.32-1.65,3.57,3.57,0,0,1,2-.58,3.15,3.15,0,0,1,2.57,1.26v-1.06h1.38v7.62a7.26,7.26,0,0,1-.42,2.92,3.11,3.11,0,0,1-1.33,1.36,4.6,4.6,0,0,1-2.23.49,4.17,4.17,0,0,1-2.55-.71A2.39,2.39,0,0,1,199.16,130.26Zm1.24-5.3a3.81,3.81,0,0,0,.69,2.53,2.17,2.17,0,0,0,1.72.8,2.24,2.24,0,0,0,1.73-.79,3.74,3.74,0,0,0,.7-2.49,3.61,3.61,0,0,0-.72-2.44,2.22,2.22,0,0,0-1.73-.82,2.17,2.17,0,0,0-1.7.81A3.62,3.62,0,0,0,200.4,125Z"/><rect class="cls-3" x="6.14" y="184.67" width="61.13" height="38.3" rx="4.21"/><path class="cls-5" d="M30.89,197.63H32.5v7a8.22,8.22,0,0,1-.42,2.91,3.53,3.53,0,0,1-1.5,1.76,5.31,5.31,0,0,1-2.84.67,5.9,5.9,0,0,1-2.8-.59,3.38,3.38,0,0,1-1.55-1.7,8.15,8.15,0,0,1-.46-3.05v-7h1.61v7a7,7,0,0,0,.29,2.33,2.25,2.25,0,0,0,1,1.16,3.55,3.55,0,0,0,1.76.41,3.34,3.34,0,0,0,2.53-.81,4.58,4.58,0,0,0,.76-3.09Z"/><path class="cls-5" d="M35,209.8V201h1.34v1.25a3.17,3.17,0,0,1,2.81-1.45,3.49,3.49,0,0,1,1.46.29,2.26,2.26,0,0,1,1,.75,2.8,2.8,0,0,1,.47,1.1,9.28,9.28,0,0,1,.08,1.45v5.42H40.66v-5.36a3.86,3.86,0,0,0-.18-1.36,1.38,1.38,0,0,0-.62-.73,1.94,1.94,0,0,0-1-.27,2.48,2.48,0,0,0-1.65.61,3,3,0,0,0-.69,2.3v4.81Z"/><path class="cls-5" d="M44.45,199.35v-1.72h1.49v1.72Zm0,10.45V201h1.49v8.81Z"/><path class="cls-5" d="M51.48,208.47l.22,1.32a5.44,5.44,0,0,1-1.13.13,2.57,2.57,0,0,1-1.26-.26,1.4,1.4,0,0,1-.63-.67,5.1,5.1,0,0,1-.19-1.77v-5.07H47.4V201h1.09v-2.18l1.49-.9V201h1.5v1.16H50v5.16a2.39,2.39,0,0,0,.08.82.61.61,0,0,0,.26.29,1,1,0,0,0,.51.11A4.7,4.7,0,0,0,51.48,208.47Z"/><rect class="cls-3" x="222.09" y="184.67" width="63.13" height="38.3" rx="4.21"/><path class="cls-5" d="M228,206l1.52-.14a3.37,3.37,0,0,0,.5,1.5,2.76,2.76,0,0,0,1.23.95,4.61,4.61,0,0,0,1.86.36,4.53,4.53,0,0,0,1.63-.27,2.37,2.37,0,0,0,1.05-.75,1.77,1.77,0,0,0,.35-1.05,1.55,1.55,0,0,0-.34-1,2.43,2.43,0,0,0-1.09-.71,20.78,20.78,0,0,0-2.17-.6,11,11,0,0,1-2.35-.76,3.31,3.31,0,0,1-1.3-1.13,2.83,2.83,0,0,1-.42-1.52,3.1,3.1,0,0,1,.52-1.72,3.22,3.22,0,0,1,1.53-1.21,5.72,5.72,0,0,1,2.23-.42,6.14,6.14,0,0,1,2.39.44,3.56,3.56,0,0,1,1.59,1.28,3.68,3.68,0,0,1,.59,1.92l-1.54.11a2.5,2.5,0,0,0-.84-1.74,3.31,3.31,0,0,0-2.12-.59,3.36,3.36,0,0,0-2.13.54,1.58,1.58,0,0,0-.67,1.29,1.42,1.42,0,0,0,.47,1.08,6.38,6.38,0,0,0,2.43.86,16.16,16.16,0,0,1,2.69.78,3.73,3.73,0,0,1,1.57,1.24,3,3,0,0,1,.51,1.73,3.31,3.31,0,0,1-.56,1.83,3.67,3.67,0,0,1-1.6,1.34,5.5,5.5,0,0,1-2.34.47,7,7,0,0,1-2.77-.48,3.88,3.88,0,0,1-1.75-1.44A4.15,4.15,0,0,1,228,206Z"/><path class="cls-5" d="M239.66,209.91v-8.82H241v1.24a3.17,3.17,0,0,1,1.11-1,3.13,3.13,0,0,1,1.57-.4,2.9,2.9,0,0,1,1.6.41,2.21,2.21,0,0,1,.89,1.14,3.15,3.15,0,0,1,2.72-1.55,2.71,2.71,0,0,1,2,.73,3.1,3.1,0,0,1,.7,2.24v6h-1.48v-5.55a4.05,4.05,0,0,0-.15-1.3,1.24,1.24,0,0,0-.53-.63,1.62,1.62,0,0,0-.89-.24,2.07,2.07,0,0,0-1.55.62,2.71,2.71,0,0,0-.61,2v5.12h-1.5v-5.73a2.54,2.54,0,0,0-.36-1.49,1.36,1.36,0,0,0-1.2-.5,2.14,2.14,0,0,0-1.16.33,1.89,1.89,0,0,0-.78,1,5.49,5.49,0,0,0-.24,1.84v4.58Z"/><path class="cls-5" d="M253.26,205.5a4.58,4.58,0,0,1,1.36-3.63,4.14,4.14,0,0,1,2.78-1,4,4,0,0,1,3,1.19,4.56,4.56,0,0,1,1.15,3.3,5.82,5.82,0,0,1-.51,2.67,3.64,3.64,0,0,1-1.49,1.52,4.31,4.31,0,0,1-2.12.54,4,4,0,0,1-3-1.19A4.74,4.74,0,0,1,253.26,205.5Zm1.54,0a3.74,3.74,0,0,0,.74,2.54,2.46,2.46,0,0,0,3.71,0,3.84,3.84,0,0,0,.74-2.58,3.62,3.62,0,0,0-.75-2.48,2.46,2.46,0,0,0-3.7,0A3.69,3.69,0,0,0,254.8,205.5Z"/><path class="cls-5" d="M263.28,209.91V197.74h1.49v6.94l3.54-3.59h1.94l-3.38,3.27,3.71,5.55h-1.84l-2.91-4.51-1.06,1v3.5Z"/><path class="cls-5" d="M277.81,207.07l1.54.19a3.75,3.75,0,0,1-1.35,2.1,4.07,4.07,0,0,1-2.53.75,4,4,0,0,1-3.06-1.19,4.66,4.66,0,0,1-1.14-3.35,4.89,4.89,0,0,1,1.15-3.45,3.86,3.86,0,0,1,3-1.23,3.75,3.75,0,0,1,2.89,1.21,4.76,4.76,0,0,1,1.12,3.38c0,.09,0,.22,0,.4h-6.57a3.4,3.4,0,0,0,.82,2.23,2.46,2.46,0,0,0,1.84.77,2.29,2.29,0,0,0,1.41-.43A3,3,0,0,0,277.81,207.07Zm-4.91-2.42h4.92a2.91,2.91,0,0,0-.56-1.66,2.28,2.28,0,0,0-1.85-.87,2.35,2.35,0,0,0-1.73.69A2.71,2.71,0,0,0,272.9,204.65Z"/><rect class="cls-3" x="39.79" y="235.39" width="93.13" height="38.3" rx="4.21"/><path class="cls-5" d="M44.7,258.84V246.67h5.4a7.15,7.15,0,0,1,2.47.33,2.73,2.73,0,0,1,1.35,1.15,3.47,3.47,0,0,1,.51,1.84,3.05,3.05,0,0,1-.84,2.18A4.25,4.25,0,0,1,51,253.3a4.19,4.19,0,0,1,1,.61,8.48,8.48,0,0,1,1.34,1.61l2.11,3.32h-2l-1.61-2.53c-.47-.73-.86-1.29-1.16-1.68a3.59,3.59,0,0,0-.82-.81,2.36,2.36,0,0,0-.73-.33,4.82,4.82,0,0,0-.9-.06H46.31v5.41Zm1.61-6.8h3.46a5.27,5.27,0,0,0,1.73-.23,1.85,1.85,0,0,0,1-.73,2,2,0,0,0,.32-1.09,1.8,1.8,0,0,0-.63-1.42,2.94,2.94,0,0,0-2-.56H46.31Z"/><path class="cls-5" d="M62.8,256l1.54.19a3.75,3.75,0,0,1-1.35,2.1,4.07,4.07,0,0,1-2.53.75,4,4,0,0,1-3.06-1.19,4.66,4.66,0,0,1-1.14-3.35,4.84,4.84,0,0,1,1.15-3.45,3.86,3.86,0,0,1,3-1.23A3.75,3.75,0,0,1,63.27,251a4.76,4.76,0,0,1,1.12,3.38c0,.09,0,.22,0,.4H57.81a3.4,3.4,0,0,0,.82,2.23,2.46,2.46,0,0,0,1.84.77,2.31,2.31,0,0,0,1.4-.43A2.9,2.9,0,0,0,62.8,256Zm-4.91-2.42h4.92a3,3,0,0,0-.56-1.67,2.3,2.3,0,0,0-1.85-.86,2.35,2.35,0,0,0-1.73.69A2.71,2.71,0,0,0,57.89,253.58Z"/><path class="cls-5" d="M65.94,259.57l1.45.21a1.4,1.4,0,0,0,.51,1,2.47,2.47,0,0,0,1.52.42,2.63,2.63,0,0,0,1.6-.42,2,2,0,0,0,.77-1.16,10,10,0,0,0,.1-1.92,3.06,3.06,0,0,1-2.44,1.16,3.33,3.33,0,0,1-2.81-1.31,5.11,5.11,0,0,1-1-3.15,5.94,5.94,0,0,1,.46-2.33,3.7,3.7,0,0,1,1.32-1.65,3.64,3.64,0,0,1,2-.58A3.18,3.18,0,0,1,72,251.08V250h1.37v7.62a7.23,7.23,0,0,1-.42,2.92,3.09,3.09,0,0,1-1.32,1.36,4.66,4.66,0,0,1-2.24.5,4.25,4.25,0,0,1-2.55-.71A2.41,2.41,0,0,1,65.94,259.57Zm1.24-5.3a3.81,3.81,0,0,0,.69,2.53,2.15,2.15,0,0,0,1.72.8,2.2,2.2,0,0,0,1.73-.79,3.68,3.68,0,0,0,.7-2.49,3.61,3.61,0,0,0-.72-2.44,2.21,2.21,0,0,0-1.73-.82,2.15,2.15,0,0,0-1.69.81A3.56,3.56,0,0,0,67.18,254.27Z"/><path class="cls-5" d="M75.65,258.84V250H77v1.34a3.59,3.59,0,0,1,1-1.24,1.65,1.65,0,0,1,1-.3,2.91,2.91,0,0,1,1.53.48l-.51,1.39a2.11,2.11,0,0,0-1.1-.32,1.47,1.47,0,0,0-.88.29,1.6,1.6,0,0,0-.55.82,5.67,5.67,0,0,0-.25,1.74v4.62Z"/><path class="cls-5" d="M87.37,256l1.54.19a3.75,3.75,0,0,1-1.35,2.1A4.07,4.07,0,0,1,85,259,4,4,0,0,1,82,257.85a4.66,4.66,0,0,1-1.14-3.35A4.84,4.84,0,0,1,82,251.05a3.86,3.86,0,0,1,3-1.23A3.75,3.75,0,0,1,87.84,251,4.76,4.76,0,0,1,89,254.41c0,.09,0,.22,0,.4H82.38A3.4,3.4,0,0,0,83.2,257a2.46,2.46,0,0,0,1.84.77,2.36,2.36,0,0,0,1.41-.43A3,3,0,0,0,87.37,256Zm-4.91-2.42h4.92a3,3,0,0,0-.56-1.67,2.3,2.3,0,0,0-1.85-.86,2.35,2.35,0,0,0-1.73.69A2.71,2.71,0,0,0,82.46,253.58Z"/><path class="cls-5" d="M90.19,256.21l1.48-.24a2.06,2.06,0,0,0,.69,1.37,2.45,2.45,0,0,0,1.59.47,2.35,2.35,0,0,0,1.53-.42,1.25,1.25,0,0,0,.49-1,.9.9,0,0,0-.43-.8A7.06,7.06,0,0,0,94,255.1a12.38,12.38,0,0,1-2.28-.72,2.18,2.18,0,0,1-1-.83,2.25,2.25,0,0,1-.33-1.19,2.29,2.29,0,0,1,.27-1.09,2.42,2.42,0,0,1,.73-.83,3.12,3.12,0,0,1,1-.44,4.47,4.47,0,0,1,1.29-.18,5.16,5.16,0,0,1,1.83.3,2.48,2.48,0,0,1,1.15.81,3.25,3.25,0,0,1,.52,1.37l-1.46.2a1.62,1.62,0,0,0-.58-1.07,2.15,2.15,0,0,0-1.35-.38,2.45,2.45,0,0,0-1.47.34,1,1,0,0,0-.44.8.82.82,0,0,0,.18.52,1.45,1.45,0,0,0,.58.4c.15.06.59.18,1.32.38a20.7,20.7,0,0,1,2.21.69,2.27,2.27,0,0,1,1,.79,2.17,2.17,0,0,1,.36,1.28,2.42,2.42,0,0,1-.44,1.4,2.86,2.86,0,0,1-1.25,1A4.61,4.61,0,0,1,94,259a4.11,4.11,0,0,1-2.62-.72A3.32,3.32,0,0,1,90.19,256.21Z"/><path class="cls-5" d="M98.69,256.21l1.48-.24a2.06,2.06,0,0,0,.69,1.37,2.45,2.45,0,0,0,1.59.47,2.35,2.35,0,0,0,1.53-.42,1.25,1.25,0,0,0,.49-1,.9.9,0,0,0-.43-.8,7.06,7.06,0,0,0-1.53-.51,12.38,12.38,0,0,1-2.28-.72,2.18,2.18,0,0,1-1-.83,2.25,2.25,0,0,1-.33-1.19,2.29,2.29,0,0,1,.27-1.09,2.42,2.42,0,0,1,.73-.83,3.12,3.12,0,0,1,1-.44,4.47,4.47,0,0,1,1.29-.18,5.16,5.16,0,0,1,1.83.3,2.48,2.48,0,0,1,1.15.81,3.25,3.25,0,0,1,.52,1.37l-1.46.2a1.62,1.62,0,0,0-.58-1.07,2.15,2.15,0,0,0-1.35-.38,2.45,2.45,0,0,0-1.47.34,1,1,0,0,0-.44.8.82.82,0,0,0,.18.52,1.45,1.45,0,0,0,.58.4c.15.06.59.18,1.32.38a20.7,20.7,0,0,1,2.21.69,2.27,2.27,0,0,1,1,.79,2.17,2.17,0,0,1,.36,1.28,2.42,2.42,0,0,1-.44,1.4,2.86,2.86,0,0,1-1.25,1,4.61,4.61,0,0,1-1.86.36,4.11,4.11,0,0,1-2.62-.72A3.32,3.32,0,0,1,98.69,256.21Z"/><path class="cls-5" d="M107.79,248.39v-1.72h1.5v1.72Zm0,10.45V250h1.5v8.82Z"/><path class="cls-5" d="M111,254.43a4.55,4.55,0,0,1,1.36-3.63,4.11,4.11,0,0,1,2.77-1,4,4,0,0,1,3,1.19,4.55,4.55,0,0,1,1.16,3.3,5.82,5.82,0,0,1-.51,2.67,3.64,3.64,0,0,1-1.49,1.52,4.32,4.32,0,0,1-2.13.54,4,4,0,0,1-3-1.19A4.74,4.74,0,0,1,111,254.43Zm1.53,0a3.79,3.79,0,0,0,.74,2.54,2.36,2.36,0,0,0,1.86.84A2.34,2.34,0,0,0,117,257a3.79,3.79,0,0,0,.74-2.58,3.67,3.67,0,0,0-.74-2.48,2.47,2.47,0,0,0-3.71,0A3.75,3.75,0,0,0,112.54,254.43Z"/><path class="cls-5" d="M121,258.84V250h1.34v1.25a3.2,3.2,0,0,1,2.81-1.45,3.66,3.66,0,0,1,1.46.29,2.26,2.26,0,0,1,1,.75,2.8,2.8,0,0,1,.47,1.1,9.34,9.34,0,0,1,.08,1.46v5.42h-1.49v-5.37a3.9,3.9,0,0,0-.18-1.36,1.39,1.39,0,0,0-.62-.72,1.94,1.94,0,0,0-1-.27,2.47,2.47,0,0,0-1.65.6,3,3,0,0,0-.69,2.3v4.82Z"/><rect class="cls-4" x="597.01" y="217.39" width="99.13" height="56.3" rx="4.21"/><rect class="cls-4" x="370.43" y="217.39" width="106.13" height="56.3" rx="4.21"/><path class="cls-5" d="M379,240.85V228.68h4.59a12.21,12.21,0,0,1,1.85.11,3.62,3.62,0,0,1,1.5.57,3,3,0,0,1,1,1.18,4,4,0,0,1-.62,4.29c-.66.71-1.85,1.07-3.57,1.07h-3.12v4.95Zm1.61-6.39h3.14a3.34,3.34,0,0,0,2.22-.58,2,2,0,0,0,.65-1.63,2.18,2.18,0,0,0-.38-1.31,1.86,1.86,0,0,0-1-.72,7.14,7.14,0,0,0-1.5-.1h-3.11Z"/><path class="cls-5" d="M396.16,238l1.54.19a3.75,3.75,0,0,1-1.35,2.1,4.58,4.58,0,0,1-5.59-.44,4.65,4.65,0,0,1-1.13-3.35,4.88,4.88,0,0,1,1.14-3.45,3.89,3.89,0,0,1,3-1.23,3.75,3.75,0,0,1,2.89,1.21,4.76,4.76,0,0,1,1.12,3.38c0,.09,0,.22,0,.4h-6.57a3.45,3.45,0,0,0,.82,2.23,2.46,2.46,0,0,0,1.84.77,2.36,2.36,0,0,0,1.41-.43A3,3,0,0,0,396.16,238Zm-4.91-2.42h4.93a3.05,3.05,0,0,0-.57-1.67,2.29,2.29,0,0,0-1.85-.86,2.37,2.37,0,0,0-1.73.69A2.71,2.71,0,0,0,391.25,235.59Z"/><path class="cls-5" d="M399.56,240.85V232h1.35v1.34a3.59,3.59,0,0,1,.95-1.24,1.65,1.65,0,0,1,1-.3,2.91,2.91,0,0,1,1.53.48l-.51,1.39a2.11,2.11,0,0,0-1.1-.32,1.45,1.45,0,0,0-.88.29,1.6,1.6,0,0,0-.55.82,5.67,5.67,0,0,0-.25,1.74v4.62Z"/><path class="cls-5" d="M405.6,240.85v-7.66h-1.32V232h1.32v-.94a4.33,4.33,0,0,1,.15-1.32,2,2,0,0,1,.76-.94,2.77,2.77,0,0,1,1.53-.36,7.25,7.25,0,0,1,1.39.15l-.22,1.3a5.53,5.53,0,0,0-.88-.08,1.29,1.29,0,0,0-1,.29,1.58,1.58,0,0,0-.29,1.09V232h1.72v1.16h-1.72v7.66Z"/><path class="cls-5" d="M409.41,236.44a4.55,4.55,0,0,1,1.36-3.63,4.11,4.11,0,0,1,2.77-1,4,4,0,0,1,3,1.19,4.56,4.56,0,0,1,1.16,3.3,5.82,5.82,0,0,1-.51,2.67,3.64,3.64,0,0,1-1.49,1.52,4.32,4.32,0,0,1-2.13.54,4,4,0,0,1-3-1.19A4.74,4.74,0,0,1,409.41,236.44Zm1.53,0a3.79,3.79,0,0,0,.74,2.54,2.36,2.36,0,0,0,1.86.84,2.34,2.34,0,0,0,1.85-.85,3.84,3.84,0,0,0,.74-2.58,3.67,3.67,0,0,0-.74-2.48,2.47,2.47,0,0,0-3.71,0A3.75,3.75,0,0,0,410.94,236.44Z"/><path class="cls-5" d="M419.42,240.85V232h1.33v1.24a3.17,3.17,0,0,1,1.11-1,3,3,0,0,1,1.57-.4,2.88,2.88,0,0,1,1.6.41,2.16,2.16,0,0,1,.89,1.14,3.17,3.17,0,0,1,2.72-1.55,2.71,2.71,0,0,1,2,.73,3.1,3.1,0,0,1,.7,2.24v6h-1.48v-5.56a4,4,0,0,0-.15-1.29,1.2,1.2,0,0,0-.53-.63,1.62,1.62,0,0,0-.89-.24,2.07,2.07,0,0,0-1.55.62,2.76,2.76,0,0,0-.61,2v5.12h-1.49v-5.73a2.53,2.53,0,0,0-.37-1.49,1.35,1.35,0,0,0-1.19-.5,2.18,2.18,0,0,0-1.17.33,1.85,1.85,0,0,0-.78,1,5.49,5.49,0,0,0-.24,1.84v4.58Z"/><path class="cls-5" d="M439.33,239.76a5.58,5.58,0,0,1-1.6,1,4.69,4.69,0,0,1-1.65.29,3.23,3.23,0,0,1-2.23-.71,2.49,2.49,0,0,1,.29-3.86,3.87,3.87,0,0,1,1.07-.49,10.34,10.34,0,0,1,1.33-.22,14,14,0,0,0,2.67-.52v-.39a1.64,1.64,0,0,0-.42-1.28,2.49,2.49,0,0,0-1.7-.51,2.64,2.64,0,0,0-1.56.37,2.28,2.28,0,0,0-.74,1.31l-1.46-.2A3.54,3.54,0,0,1,434,233a2.88,2.88,0,0,1,1.32-.89,6,6,0,0,1,2-.31,5.2,5.2,0,0,1,1.83.27,2.43,2.43,0,0,1,1,.67,2.36,2.36,0,0,1,.46,1,8.33,8.33,0,0,1,.08,1.38v2a22.53,22.53,0,0,0,.09,2.64,3.46,3.46,0,0,0,.38,1.06h-1.56A3,3,0,0,1,439.33,239.76Zm-.12-3.34a11.46,11.46,0,0,1-2.44.57,5.82,5.82,0,0,0-1.31.3,1.34,1.34,0,0,0-.59.48,1.36,1.36,0,0,0-.2.71,1.29,1.29,0,0,0,.45,1,2,2,0,0,0,1.32.4,3.11,3.11,0,0,0,1.54-.38,2.31,2.31,0,0,0,1-1,3.57,3.57,0,0,0,.24-1.49Z"/><path class="cls-5" d="M443,240.85V232h1.35v1.26a3.17,3.17,0,0,1,2.8-1.46,3.71,3.71,0,0,1,1.47.29,2.32,2.32,0,0,1,1,.75,2.79,2.79,0,0,1,.46,1.1,8,8,0,0,1,.09,1.46v5.42h-1.5v-5.36a4,4,0,0,0-.17-1.37,1.44,1.44,0,0,0-.62-.72,2,2,0,0,0-1-.27,2.43,2.43,0,0,0-1.65.6,3,3,0,0,0-.69,2.3v4.82Z"/><path class="cls-5" d="M458.24,237.62l1.47.19a3.82,3.82,0,0,1-1.23,2.38,3.62,3.62,0,0,1-2.44.86,3.79,3.79,0,0,1-2.91-1.19,4.78,4.78,0,0,1-1.1-3.39,6.26,6.26,0,0,1,.47-2.5,3.33,3.33,0,0,1,1.45-1.6,4.21,4.21,0,0,1,2.1-.54,3.68,3.68,0,0,1,2.35.73,3.3,3.3,0,0,1,1.17,2.06l-1.45.23a2.42,2.42,0,0,0-.74-1.34,1.88,1.88,0,0,0-1.27-.45,2.33,2.33,0,0,0-1.84.81,3.84,3.84,0,0,0-.7,2.56,3.91,3.91,0,0,0,.68,2.58,2.19,2.19,0,0,0,1.77.81,2.08,2.08,0,0,0,1.47-.54A2.61,2.61,0,0,0,458.24,237.62Z"/><path class="cls-5" d="M467,238l1.55.19a3.82,3.82,0,0,1-1.36,2.1,4.58,4.58,0,0,1-5.59-.44,4.7,4.7,0,0,1-1.13-3.35,4.84,4.84,0,0,1,1.15-3.45,3.86,3.86,0,0,1,3-1.23A3.75,3.75,0,0,1,467.5,233a4.8,4.8,0,0,1,1.12,3.38c0,.09,0,.22,0,.4H462a3.4,3.4,0,0,0,.83,2.23,2.44,2.44,0,0,0,1.84.77,2.33,2.33,0,0,0,1.4-.43A2.82,2.82,0,0,0,467,238Zm-4.9-2.42H467a3.05,3.05,0,0,0-.56-1.67,2.32,2.32,0,0,0-1.86-.86,2.38,2.38,0,0,0-1.73.69A2.75,2.75,0,0,0,462.12,235.59Z"/><path class="cls-5" d="M402.83,259.91l.22,1.32a5.44,5.44,0,0,1-1.13.13,2.58,2.58,0,0,1-1.26-.25,1.42,1.42,0,0,1-.63-.68,5.33,5.33,0,0,1-.19-1.76v-5.08h-1.09v-1.16h1.09v-2.18l1.49-.9v3.08h1.5v1.16h-1.5v5.16a2.63,2.63,0,0,0,.08.82.61.61,0,0,0,.26.29,1,1,0,0,0,.51.11A4.7,4.7,0,0,0,402.83,259.91Z"/><path class="cls-5" d="M410.33,258.41l1.54.19a3.75,3.75,0,0,1-1.35,2.1,4.58,4.58,0,0,1-5.59-.44,4.65,4.65,0,0,1-1.13-3.34,4.89,4.89,0,0,1,1.14-3.46,3.88,3.88,0,0,1,3-1.23,3.75,3.75,0,0,1,2.89,1.21,4.76,4.76,0,0,1,1.12,3.38c0,.09,0,.22,0,.4h-6.57a3.4,3.4,0,0,0,.82,2.23,2.46,2.46,0,0,0,1.84.77,2.29,2.29,0,0,0,1.41-.43A3,3,0,0,0,410.33,258.41ZM405.42,256h4.92a2.91,2.91,0,0,0-.56-1.66,2.28,2.28,0,0,0-1.85-.87,2.37,2.37,0,0,0-1.73.69A2.71,2.71,0,0,0,405.42,256Z"/><path class="cls-5" d="M413.15,258.62l1.48-.24a2.06,2.06,0,0,0,.69,1.37,2.45,2.45,0,0,0,1.59.47,2.33,2.33,0,0,0,1.53-.42,1.27,1.27,0,0,0,.5-1,.91.91,0,0,0-.44-.8,7.06,7.06,0,0,0-1.53-.51,12.38,12.38,0,0,1-2.28-.72,2.16,2.16,0,0,1-1.29-2,2.29,2.29,0,0,1,.27-1.09,2.42,2.42,0,0,1,.73-.83,3.24,3.24,0,0,1,1-.44,4.59,4.59,0,0,1,1.3-.18,5.11,5.11,0,0,1,1.82.3,2.51,2.51,0,0,1,1.16.81,3.25,3.25,0,0,1,.51,1.37l-1.46.2a1.62,1.62,0,0,0-.58-1.07,2.15,2.15,0,0,0-1.35-.38,2.52,2.52,0,0,0-1.47.34,1,1,0,0,0-.44.8.83.83,0,0,0,.19.52,1.26,1.26,0,0,0,.57.4c.15.06.59.18,1.32.38a17.53,17.53,0,0,1,2.21.7,2.28,2.28,0,0,1,1,.78,2.24,2.24,0,0,1,.35,1.28,2.51,2.51,0,0,1-.43,1.41,2.87,2.87,0,0,1-1.26,1,4.61,4.61,0,0,1-1.86.36,4.11,4.11,0,0,1-2.62-.72A3.32,3.32,0,0,1,413.15,258.62Z"/><path class="cls-5" d="M425.51,259.91l.22,1.32a5.44,5.44,0,0,1-1.13.13,2.56,2.56,0,0,1-1.26-.25,1.5,1.5,0,0,1-.64-.68,5.42,5.42,0,0,1-.18-1.76v-5.08h-1.09v-1.16h1.09v-2.18l1.49-.9v3.08h1.5v1.16H424v5.16a2.35,2.35,0,0,0,.08.82.64.64,0,0,0,.25.29,1,1,0,0,0,.51.11A4.7,4.7,0,0,0,425.51,259.91Z"/><path class="cls-5" d="M427,250.8v-1.72h1.49v1.72Zm0,10.45v-8.82h1.49v8.82Z"/><path class="cls-5" d="M430.75,261.25v-8.82h1.34v1.26a3.19,3.19,0,0,1,2.81-1.46,3.66,3.66,0,0,1,1.46.29,2.26,2.26,0,0,1,1,.75,2.79,2.79,0,0,1,.47,1.11,9.19,9.19,0,0,1,.08,1.45v5.42h-1.49v-5.36a3.92,3.92,0,0,0-.18-1.37,1.39,1.39,0,0,0-.62-.72,1.94,1.94,0,0,0-1-.27,2.42,2.42,0,0,0-1.64.6,3,3,0,0,0-.7,2.3v4.82Z"/><path class="cls-5" d="M439.93,262l1.45.21a1.36,1.36,0,0,0,.51,1,2.47,2.47,0,0,0,1.52.42,2.65,2.65,0,0,0,1.6-.42,2,2,0,0,0,.76-1.16,8.94,8.94,0,0,0,.11-1.92,3.08,3.08,0,0,1-2.44,1.16,3.33,3.33,0,0,1-2.81-1.31,5,5,0,0,1-1-3.15,5.77,5.77,0,0,1,.46-2.33,3.47,3.47,0,0,1,3.36-2.23A3.13,3.13,0,0,1,446,253.5v-1.07h1.38v7.62A7.23,7.23,0,0,1,447,263a3.06,3.06,0,0,1-1.33,1.36,4.6,4.6,0,0,1-2.23.5,4.21,4.21,0,0,1-2.55-.71A2.41,2.41,0,0,1,439.93,262Zm1.24-5.3a3.81,3.81,0,0,0,.69,2.53,2.14,2.14,0,0,0,1.72.8,2.21,2.21,0,0,0,1.73-.79,3.74,3.74,0,0,0,.7-2.49,3.61,3.61,0,0,0-.72-2.44,2.22,2.22,0,0,0-1.73-.82,2.17,2.17,0,0,0-1.7.81A3.62,3.62,0,0,0,441.17,256.68Z"/><rect class="cls-4" x="483.67" y="217.39" width="106.13" height="56.3" rx="4.21"/><path class="cls-5" d="M495.54,240.74l-4.71-12.17h1.74l3.16,8.85c.26.7.47,1.37.64,2,.19-.67.41-1.33.66-2l3.29-8.85H502l-4.77,12.17Z"/><path class="cls-5" d="M508.36,240.74v-1.29a3.24,3.24,0,0,1-2.8,1.49,3.6,3.6,0,0,1-1.46-.3,2.42,2.42,0,0,1-1-.75,2.8,2.8,0,0,1-.46-1.11,7.59,7.59,0,0,1-.09-1.39v-5.46H504v4.89a8.73,8.73,0,0,0,.09,1.57,1.59,1.59,0,0,0,.6.93,1.89,1.89,0,0,0,1.13.34,2.44,2.44,0,0,0,1.26-.35,2,2,0,0,0,.84-.94,4.77,4.77,0,0,0,.24-1.72v-4.72h1.49v8.81Z"/><path class="cls-5" d="M512,240.74V228.57h1.5v12.17Z"/><path class="cls-5" d="M515.81,240.74v-8.81h1.35v1.25a3.16,3.16,0,0,1,2.8-1.45,3.54,3.54,0,0,1,1.47.29,2.32,2.32,0,0,1,1,.75,2.88,2.88,0,0,1,.46,1.1,7.91,7.91,0,0,1,.09,1.45v5.42h-1.5v-5.36a4.16,4.16,0,0,0-.17-1.36,1.42,1.42,0,0,0-.62-.73,2,2,0,0,0-1-.27,2.44,2.44,0,0,0-1.65.61,3,3,0,0,0-.69,2.3v4.81Z"/><path class="cls-5" d="M531.3,237.9l1.54.2a3.75,3.75,0,0,1-1.35,2.1,4.12,4.12,0,0,1-2.52.74,4,4,0,0,1-3.07-1.19,4.67,4.67,0,0,1-1.13-3.34,4.88,4.88,0,0,1,1.14-3.45,3.9,3.9,0,0,1,3-1.23,3.76,3.76,0,0,1,2.88,1.2,4.77,4.77,0,0,1,1.13,3.39c0,.09,0,.22,0,.4h-6.58a3.4,3.4,0,0,0,.82,2.22,2.45,2.45,0,0,0,1.85.77,2.28,2.28,0,0,0,1.4-.43A2.77,2.77,0,0,0,531.3,237.9Zm-4.9-2.41h4.92a3,3,0,0,0-.57-1.67,2.29,2.29,0,0,0-1.85-.86,2.38,2.38,0,0,0-1.73.69A2.66,2.66,0,0,0,526.4,235.49Z"/><path class="cls-5" d="M534.7,240.74v-8.81h1.35v1.34a3.59,3.59,0,0,1,1-1.24,1.65,1.65,0,0,1,1-.3,3,3,0,0,1,1.54.48L539,233.6a2.12,2.12,0,0,0-1.1-.33,1.42,1.42,0,0,0-.88.3,1.62,1.62,0,0,0-.55.82,5.67,5.67,0,0,0-.25,1.74v4.61Z"/><path class="cls-5" d="M546.14,239.66a5.58,5.58,0,0,1-1.6,1,4.48,4.48,0,0,1-1.65.29,3.16,3.16,0,0,1-2.23-.71,2.32,2.32,0,0,1-.78-1.81,2.45,2.45,0,0,1,.29-1.18,2.38,2.38,0,0,1,.77-.86,3.54,3.54,0,0,1,1.08-.49,11.18,11.18,0,0,1,1.33-.23,13.42,13.42,0,0,0,2.66-.51c0-.21,0-.34,0-.39a1.67,1.67,0,0,0-.42-1.29,2.51,2.51,0,0,0-1.71-.5,2.58,2.58,0,0,0-1.55.37,2.21,2.21,0,0,0-.75,1.3l-1.46-.2a3.76,3.76,0,0,1,.66-1.51,2.81,2.81,0,0,1,1.32-.89,5.8,5.8,0,0,1,2-.31,5.47,5.47,0,0,1,1.83.26,2.43,2.43,0,0,1,1,.67,2.41,2.41,0,0,1,.47,1,8.49,8.49,0,0,1,.07,1.38v2a19.67,19.67,0,0,0,.1,2.64,3.16,3.16,0,0,0,.38,1.05h-1.57A3.17,3.17,0,0,1,546.14,239.66Zm-.13-3.34a10.69,10.69,0,0,1-2.44.56,5.7,5.7,0,0,0-1.3.3,1.3,1.3,0,0,0-.59.49,1.31,1.31,0,0,0,.24,1.7,1.92,1.92,0,0,0,1.33.4,3.09,3.09,0,0,0,1.53-.37,2.36,2.36,0,0,0,1-1,3.6,3.6,0,0,0,.24-1.49Z"/><path class="cls-5" d="M551.21,240.74h-1.38V228.57h1.49v4.35a2.94,2.94,0,0,1,2.42-1.19,3.71,3.71,0,0,1,1.54.33,3.11,3.11,0,0,1,1.19.92,4.3,4.3,0,0,1,.74,1.43,5.83,5.83,0,0,1,.26,1.79,5.05,5.05,0,0,1-1.12,3.51,3.5,3.5,0,0,1-2.69,1.23,2.81,2.81,0,0,1-2.45-1.3Zm0-4.47a4.54,4.54,0,0,0,.43,2.29,2.14,2.14,0,0,0,3.6.3,3.82,3.82,0,0,0,.72-2.53,3.92,3.92,0,0,0-.69-2.55,2.07,2.07,0,0,0-1.66-.82,2.14,2.14,0,0,0-1.69.85A3.78,3.78,0,0,0,551.2,236.27Z"/><path class="cls-5" d="M559.3,230.29v-1.72h1.49v1.72Zm0,10.45v-8.81h1.49v8.81Z"/><path class="cls-5" d="M563,240.74V228.57h1.49v12.17Z"/><path class="cls-5" d="M566.85,230.29v-1.72h1.5v1.72Zm0,10.45v-8.81h1.5v8.81Z"/><path class="cls-5" d="M573.88,239.41l.22,1.32a5.44,5.44,0,0,1-1.13.13,2.57,2.57,0,0,1-1.26-.26,1.4,1.4,0,0,1-.63-.67,5.46,5.46,0,0,1-.18-1.77v-5.07h-1.1v-1.16h1.1v-2.18l1.48-.9v3.08h1.5v1.16h-1.5v5.16a2.73,2.73,0,0,0,.08.82.61.61,0,0,0,.26.29,1,1,0,0,0,.51.11A4.7,4.7,0,0,0,573.88,239.41Z"/><path class="cls-5" d="M575.28,244.14l-.17-1.4a3.82,3.82,0,0,0,.86.13,1.6,1.6,0,0,0,.79-.17,1.27,1.27,0,0,0,.49-.46,6.65,6.65,0,0,0,.46-1.11c0-.09.07-.21.13-.37l-3.34-8.83h1.61l1.83,5.1a19.68,19.68,0,0,1,.64,2.05,18.76,18.76,0,0,1,.62-2l1.88-5.14h1.5l-3.36,9a16.88,16.88,0,0,1-.84,2,2.89,2.89,0,0,1-.91,1.09,2.14,2.14,0,0,1-1.23.34A3,3,0,0,1,575.28,244.14Z"/><path class="cls-5" d="M516.08,259.81l.21,1.32a5.37,5.37,0,0,1-1.13.13,2.57,2.57,0,0,1-1.26-.26,1.4,1.4,0,0,1-.63-.67,5.46,5.46,0,0,1-.18-1.77v-5.07H512v-1.16h1.1v-2.18l1.49-.9v3.08h1.5v1.16h-1.5v5.16a2.8,2.8,0,0,0,.07.82.66.66,0,0,0,.26.29,1,1,0,0,0,.51.11A4.7,4.7,0,0,0,516.08,259.81Z"/><path class="cls-5" d="M523.57,258.31l1.55.19a3.82,3.82,0,0,1-1.36,2.1,4.12,4.12,0,0,1-2.52.74,4,4,0,0,1-3.07-1.19,4.67,4.67,0,0,1-1.13-3.34,4.88,4.88,0,0,1,1.14-3.45,3.9,3.9,0,0,1,3-1.23,3.79,3.79,0,0,1,2.89,1.2,4.83,4.83,0,0,1,1.12,3.39c0,.09,0,.22,0,.4h-6.58a3.35,3.35,0,0,0,.83,2.22,2.41,2.41,0,0,0,1.84.77,2.26,2.26,0,0,0,1.4-.43A2.74,2.74,0,0,0,523.57,258.31Zm-4.9-2.42h4.92a3,3,0,0,0-.57-1.67,2.29,2.29,0,0,0-1.85-.86,2.38,2.38,0,0,0-1.73.69A2.75,2.75,0,0,0,518.67,255.89Z"/><path class="cls-5" d="M526.4,258.51l1.47-.23a2.09,2.09,0,0,0,.7,1.36,2.38,2.38,0,0,0,1.59.47,2.32,2.32,0,0,0,1.52-.41,1.27,1.27,0,0,0,.5-1,.9.9,0,0,0-.44-.79,5.76,5.76,0,0,0-1.53-.51,14.93,14.93,0,0,1-2.28-.72,2.19,2.19,0,0,1-1.29-2,2.38,2.38,0,0,1,.27-1.09,2.49,2.49,0,0,1,.74-.84,3.13,3.13,0,0,1,1-.43,4.47,4.47,0,0,1,1.29-.18,5.07,5.07,0,0,1,1.82.3,2.46,2.46,0,0,1,1.16.81,3.07,3.07,0,0,1,.51,1.36l-1.46.2a1.59,1.59,0,0,0-.57-1.06,2.09,2.09,0,0,0-1.35-.38,2.41,2.41,0,0,0-1.47.34,1,1,0,0,0-.44.8.84.84,0,0,0,.18.52,1.34,1.34,0,0,0,.57.4c.15.05.59.18,1.32.38a18.28,18.28,0,0,1,2.22.69,2.25,2.25,0,0,1,1,.79,2.16,2.16,0,0,1,.36,1.27,2.52,2.52,0,0,1-.44,1.41,2.8,2.8,0,0,1-1.26,1,4.54,4.54,0,0,1-1.86.36,4.16,4.16,0,0,1-2.61-.71A3.26,3.26,0,0,1,526.4,258.51Z"/><path class="cls-5" d="M538.75,259.81l.22,1.32a5.44,5.44,0,0,1-1.13.13,2.57,2.57,0,0,1-1.26-.26,1.4,1.4,0,0,1-.63-.67,5.46,5.46,0,0,1-.18-1.77v-5.07h-1.1v-1.16h1.1v-2.18l1.48-.9v3.08h1.5v1.16h-1.5v5.16a2.68,2.68,0,0,0,.08.82.61.61,0,0,0,.26.29,1,1,0,0,0,.51.11A4.7,4.7,0,0,0,538.75,259.81Z"/><path class="cls-5" d="M540.22,250.69V249h1.5v1.71Zm0,10.45v-8.81h1.5v8.81Z"/><path class="cls-5" d="M544,261.14v-8.81h1.35v1.25a3.16,3.16,0,0,1,2.8-1.45,3.74,3.74,0,0,1,1.47.29,2.32,2.32,0,0,1,1,.75,2.79,2.79,0,0,1,.46,1.1,7.91,7.91,0,0,1,.09,1.45v5.42h-1.5v-5.36a4.16,4.16,0,0,0-.17-1.36,1.47,1.47,0,0,0-.62-.73,2,2,0,0,0-1-.27,2.44,2.44,0,0,0-1.65.61,3,3,0,0,0-.69,2.3v4.81Z"/><path class="cls-5" d="M553.17,261.87l1.46.22a1.41,1.41,0,0,0,.5,1,2.47,2.47,0,0,0,1.52.41,2.63,2.63,0,0,0,1.6-.41,2,2,0,0,0,.77-1.16,10.73,10.73,0,0,0,.11-1.92,3.09,3.09,0,0,1-2.45,1.15,3.31,3.31,0,0,1-2.81-1.31,5.05,5.05,0,0,1-1-3.14,5.94,5.94,0,0,1,.45-2.33,3.72,3.72,0,0,1,1.33-1.65,3.51,3.51,0,0,1,2-.58,3.18,3.18,0,0,1,2.58,1.26v-1.06h1.38V260a7.44,7.44,0,0,1-.42,2.92,3.09,3.09,0,0,1-1.33,1.35,4.53,4.53,0,0,1-2.24.5,4.25,4.25,0,0,1-2.55-.71A2.39,2.39,0,0,1,553.17,261.87Zm1.24-5.29a3.82,3.82,0,0,0,.69,2.53,2.26,2.26,0,0,0,3.45,0,4.62,4.62,0,0,0,0-4.92,2.21,2.21,0,0,0-1.73-.82,2.15,2.15,0,0,0-1.69.81A3.56,3.56,0,0,0,554.41,256.58Z"/><path class="cls-5" d="M636.25,236.58l1.61.41a5.45,5.45,0,0,1-1.82,3,5,5,0,0,1-3.22,1,5.73,5.73,0,0,1-3.2-.8,5,5,0,0,1-1.88-2.32,8.42,8.42,0,0,1-.64-3.26,7.06,7.06,0,0,1,.73-3.31,4.93,4.93,0,0,1,2.06-2.15,6.06,6.06,0,0,1,3-.74,5,5,0,0,1,3.07.93,4.79,4.79,0,0,1,1.74,2.62l-1.58.37a3.81,3.81,0,0,0-1.23-1.93,3.26,3.26,0,0,0-2-.61,3.9,3.9,0,0,0-2.34.67,3.58,3.58,0,0,0-1.33,1.81,7.34,7.34,0,0,0-.38,2.33,7.43,7.43,0,0,0,.45,2.71,3.31,3.31,0,0,0,1.41,1.73,3.88,3.88,0,0,0,2.07.58,3.47,3.47,0,0,0,2.29-.78A4,4,0,0,0,636.25,236.58Z"/><path class="cls-5" d="M639.09,236.44a4.55,4.55,0,0,1,1.37-3.63,4.1,4.1,0,0,1,2.77-1,4,4,0,0,1,3,1.19,4.56,4.56,0,0,1,1.15,3.3,5.82,5.82,0,0,1-.51,2.67,3.61,3.61,0,0,1-1.48,1.52,4.32,4.32,0,0,1-2.13.54,4,4,0,0,1-3-1.19A4.74,4.74,0,0,1,639.09,236.44Zm1.54,0a3.79,3.79,0,0,0,.74,2.54,2.36,2.36,0,0,0,1.86.84,2.34,2.34,0,0,0,1.85-.85,3.84,3.84,0,0,0,.74-2.58,3.67,3.67,0,0,0-.74-2.48,2.47,2.47,0,0,0-3.71,0A3.75,3.75,0,0,0,640.63,236.44Z"/><path class="cls-5" d="M654.83,240.85v-1.11a2.76,2.76,0,0,1-2.47,1.31,3.53,3.53,0,0,1-1.94-.58,3.86,3.86,0,0,1-1.37-1.63,5.63,5.63,0,0,1-.48-2.39,6.18,6.18,0,0,1,.44-2.4,3.48,3.48,0,0,1,3.28-2.22,3,3,0,0,1,1.42.34,3,3,0,0,1,1,.87v-4.36h1.48v12.17Zm-4.73-4.4a3.8,3.8,0,0,0,.72,2.53,2.11,2.11,0,0,0,3.34,0,3.69,3.69,0,0,0,.69-2.45,4.1,4.1,0,0,0-.7-2.65,2.13,2.13,0,0,0-1.72-.85,2.08,2.08,0,0,0-1.66.81A4.08,4.08,0,0,0,650.1,236.45Z"/><path class="cls-5" d="M664.59,238l1.55.19a3.8,3.8,0,0,1-1.35,2.1,4.07,4.07,0,0,1-2.53.75,4,4,0,0,1-3.06-1.19,4.66,4.66,0,0,1-1.14-3.35,4.84,4.84,0,0,1,1.15-3.45,3.86,3.86,0,0,1,3-1.23,3.75,3.75,0,0,1,2.89,1.21,4.76,4.76,0,0,1,1.12,3.38c0,.09,0,.22,0,.4h-6.57a3.4,3.4,0,0,0,.82,2.23,2.44,2.44,0,0,0,1.84.77,2.31,2.31,0,0,0,1.4-.43A2.82,2.82,0,0,0,664.59,238Zm-4.9-2.42h4.92a3,3,0,0,0-.56-1.67,2.32,2.32,0,0,0-1.85-.86,2.35,2.35,0,0,0-1.73.69A2.71,2.71,0,0,0,659.69,235.59Z"/><path class="cls-5" d="M628.74,264.63v-4.32a2.52,2.52,0,0,1-1,.81,2.82,2.82,0,0,1-1.33.33,3.53,3.53,0,0,1-2.71-1.26,4.94,4.94,0,0,1-1.13-3.43,5.81,5.81,0,0,1,.46-2.38,3.38,3.38,0,0,1,1.34-1.6,3.58,3.58,0,0,1,1.92-.55,2.94,2.94,0,0,1,2.57,1.38v-1.18h1.35v12.2Zm-4.6-7.81a3.88,3.88,0,0,0,.71,2.55,2.17,2.17,0,0,0,1.71.85,2.07,2.07,0,0,0,1.64-.81,3.72,3.72,0,0,0,.69-2.46,4.15,4.15,0,0,0-.72-2.65,2.18,2.18,0,0,0-1.71-.89,2.06,2.06,0,0,0-1.65.83A4,4,0,0,0,624.14,256.82Z"/><path class="cls-5" d="M638.36,261.25V260a3.23,3.23,0,0,1-2.8,1.5,3.57,3.57,0,0,1-1.46-.3,2.42,2.42,0,0,1-1-.75,2.8,2.8,0,0,1-.46-1.11,7.71,7.71,0,0,1-.09-1.4v-5.46H634v4.89a8.87,8.87,0,0,0,.09,1.58,1.5,1.5,0,0,0,.6.92,1.81,1.81,0,0,0,1.13.34,2.43,2.43,0,0,0,1.26-.34,1.93,1.93,0,0,0,.83-.94,4.56,4.56,0,0,0,.25-1.72v-4.73h1.49v8.82Z"/><path class="cls-5" d="M647.79,260.16a5.87,5.87,0,0,1-1.6,1,4.69,4.69,0,0,1-1.65.29,3.21,3.21,0,0,1-2.23-.71,2.36,2.36,0,0,1-.78-1.82,2.45,2.45,0,0,1,1.06-2,3.8,3.8,0,0,1,1.08-.49,10,10,0,0,1,1.33-.22,14,14,0,0,0,2.66-.52c0-.2,0-.33,0-.39a1.64,1.64,0,0,0-.42-1.28,2.51,2.51,0,0,0-1.71-.51,2.58,2.58,0,0,0-1.55.37,2.23,2.23,0,0,0-.74,1.31l-1.47-.2a3.8,3.8,0,0,1,.66-1.52,2.94,2.94,0,0,1,1.32-.89,6,6,0,0,1,2-.31,5.2,5.2,0,0,1,1.83.27,2.12,2.12,0,0,1,1.51,1.68,8.66,8.66,0,0,1,.07,1.38v2a19.67,19.67,0,0,0,.1,2.64,3.21,3.21,0,0,0,.38,1.06h-1.57A3.17,3.17,0,0,1,647.79,260.16Zm-.13-3.34a11.16,11.16,0,0,1-2.44.57,5.7,5.7,0,0,0-1.3.3,1.31,1.31,0,0,0-.35,2.19,2,2,0,0,0,1.33.4,3.07,3.07,0,0,0,1.53-.38,2.34,2.34,0,0,0,1-1,3.65,3.65,0,0,0,.24-1.5Z"/><path class="cls-5" d="M651.46,261.25V249.08H653v12.17Z"/><path class="cls-5" d="M655.27,250.8v-1.72h1.5v1.72Zm0,10.45v-8.82h1.5v8.82Z"/><path class="cls-5" d="M662.3,259.91l.22,1.32a5.44,5.44,0,0,1-1.13.13,2.58,2.58,0,0,1-1.26-.25,1.42,1.42,0,0,1-.63-.68,5.42,5.42,0,0,1-.18-1.76v-5.08h-1.1v-1.16h1.1v-2.18l1.48-.9v3.08h1.5v1.16h-1.5v5.16a2.63,2.63,0,0,0,.08.82.61.61,0,0,0,.26.29,1,1,0,0,0,.51.11A4.7,4.7,0,0,0,662.3,259.91Z"/><path class="cls-5" d="M663.7,264.64l-.17-1.4a3.27,3.27,0,0,0,.86.13,1.6,1.6,0,0,0,.79-.16,1.3,1.3,0,0,0,.49-.47,6.65,6.65,0,0,0,.46-1.11c0-.08.07-.21.13-.37l-3.34-8.83h1.61l1.83,5.11c.24.65.45,1.33.64,2a18.76,18.76,0,0,1,.62-2l1.88-5.14H671l-3.36,9a17.67,17.67,0,0,1-.84,2,2.93,2.93,0,0,1-.91,1.08,2.15,2.15,0,0,1-1.23.35A3,3,0,0,1,663.7,264.64Z"/><rect class="cls-3" x="152.67" y="235.39" width="93.13" height="38.3" rx="4.21"/><path class="cls-5" d="M172.63,246.67h1.61v7a8.49,8.49,0,0,1-.41,2.91,3.59,3.59,0,0,1-1.5,1.76,5.32,5.32,0,0,1-2.85.67,5.84,5.84,0,0,1-2.79-.58,3.46,3.46,0,0,1-1.56-1.71,8.32,8.32,0,0,1-.46-3.05v-7h1.61v7a6.74,6.74,0,0,0,.3,2.34,2.18,2.18,0,0,0,1,1.15,3.41,3.41,0,0,0,1.75.41,3.36,3.36,0,0,0,2.53-.8,4.61,4.61,0,0,0,.76-3.1Z"/><path class="cls-5" d="M177.2,258.84V246.67h1.61v12.17Z"/><path class="cls-5" d="M189.44,257.5l.22,1.32a5.44,5.44,0,0,1-1.13.13,2.56,2.56,0,0,1-1.26-.25,1.55,1.55,0,0,1-.64-.68,5.42,5.42,0,0,1-.18-1.76v-5.08h-1.09V250h1.09v-2.18l1.49-.9V250h1.5v1.16h-1.5v5.16a2.35,2.35,0,0,0,.08.82.64.64,0,0,0,.25.29,1,1,0,0,0,.51.11A4.7,4.7,0,0,0,189.44,257.5Z"/><path class="cls-5" d="M196.94,256l1.54.19a3.75,3.75,0,0,1-1.35,2.1,4.07,4.07,0,0,1-2.53.75,4,4,0,0,1-3.06-1.19,4.66,4.66,0,0,1-1.14-3.35,4.84,4.84,0,0,1,1.15-3.45,3.86,3.86,0,0,1,3-1.23,3.75,3.75,0,0,1,2.89,1.21,4.76,4.76,0,0,1,1.12,3.38c0,.09,0,.22,0,.4H192a3.4,3.4,0,0,0,.82,2.23,2.44,2.44,0,0,0,1.84.77,2.31,2.31,0,0,0,1.4-.43A2.9,2.9,0,0,0,196.94,256ZM192,253.58H197a3,3,0,0,0-.56-1.67,2.32,2.32,0,0,0-1.85-.86,2.35,2.35,0,0,0-1.73.69A2.71,2.71,0,0,0,192,253.58Z"/><path class="cls-5" d="M199.76,256.21l1.48-.24a2.06,2.06,0,0,0,.69,1.37,2.45,2.45,0,0,0,1.59.47,2.37,2.37,0,0,0,1.53-.42,1.25,1.25,0,0,0,.49-1,.89.89,0,0,0-.44-.8,6.7,6.7,0,0,0-1.52-.51,12.38,12.38,0,0,1-2.28-.72,2.21,2.21,0,0,1-1-.83,2.33,2.33,0,0,1-.32-1.19,2.29,2.29,0,0,1,.27-1.09,2.42,2.42,0,0,1,.73-.83,3.12,3.12,0,0,1,1-.44,4.47,4.47,0,0,1,1.29-.18,5.16,5.16,0,0,1,1.83.3,2.48,2.48,0,0,1,1.15.81,3.25,3.25,0,0,1,.52,1.37l-1.46.2a1.62,1.62,0,0,0-.58-1.07,2.15,2.15,0,0,0-1.35-.38,2.41,2.41,0,0,0-1.47.34,1,1,0,0,0-.44.8.82.82,0,0,0,.18.52,1.45,1.45,0,0,0,.58.4c.15.06.59.18,1.32.38a20.7,20.7,0,0,1,2.21.69,2.27,2.27,0,0,1,1,.79,2.17,2.17,0,0,1,.36,1.28,2.49,2.49,0,0,1-.44,1.4,2.92,2.92,0,0,1-1.25,1,4.61,4.61,0,0,1-1.86.36,4.11,4.11,0,0,1-2.62-.72A3.28,3.28,0,0,1,199.76,256.21Z"/><path class="cls-5" d="M212.12,257.5l.21,1.32a5.37,5.37,0,0,1-1.13.13,2.58,2.58,0,0,1-1.26-.25,1.47,1.47,0,0,1-.63-.68,5.42,5.42,0,0,1-.18-1.76v-5.08H208V250h1.1v-2.18l1.49-.9V250h1.5v1.16h-1.5v5.16a2.75,2.75,0,0,0,.07.82.66.66,0,0,0,.26.29,1,1,0,0,0,.51.11A4.7,4.7,0,0,0,212.12,257.5Z"/><path class="cls-5" d="M213.59,248.39v-1.72h1.49v1.72Zm0,10.45V250h1.49v8.82Z"/><path class="cls-5" d="M217.36,258.84V250h1.34v1.25a3.19,3.19,0,0,1,2.81-1.45,3.66,3.66,0,0,1,1.46.29,2.26,2.26,0,0,1,1,.75,3,3,0,0,1,.47,1.1,9.34,9.34,0,0,1,.08,1.46v5.42H223v-5.37a3.9,3.9,0,0,0-.18-1.36,1.39,1.39,0,0,0-.62-.72,1.94,1.94,0,0,0-1-.27,2.43,2.43,0,0,0-1.65.6,3,3,0,0,0-.69,2.3v4.82Z"/><path class="cls-5" d="M226.54,259.57l1.45.21a1.36,1.36,0,0,0,.51,1,2.44,2.44,0,0,0,1.51.42,2.66,2.66,0,0,0,1.61-.42,2,2,0,0,0,.76-1.16,9.69,9.69,0,0,0,.11-1.92,3.09,3.09,0,0,1-2.44,1.16,3.36,3.36,0,0,1-2.82-1.31,5.1,5.1,0,0,1-1-3.15,5.94,5.94,0,0,1,.45-2.33A3.72,3.72,0,0,1,228,250.4a3.64,3.64,0,0,1,2-.58,3.16,3.16,0,0,1,2.57,1.26V250H234v7.62a7.23,7.23,0,0,1-.42,2.92,3.06,3.06,0,0,1-1.33,1.36,4.64,4.64,0,0,1-2.24.5,4.25,4.25,0,0,1-2.55-.71A2.41,2.41,0,0,1,226.54,259.57Zm1.23-5.3a3.81,3.81,0,0,0,.69,2.53,2.27,2.27,0,0,0,3.45,0,3.68,3.68,0,0,0,.7-2.49,3.61,3.61,0,0,0-.72-2.44,2.19,2.19,0,0,0-1.73-.82,2.16,2.16,0,0,0-1.69.81A3.62,3.62,0,0,0,227.77,254.27Z"/><rect class="cls-3" x="265.04" y="235.39" width="93.13" height="38.3" rx="4.21"/><path class="cls-5" d="M273.25,260.55V248.38h8.8v1.44h-7.19v3.73h6.73V255h-6.73v4.15h7.47v1.43Z"/><path class="cls-5" d="M284.37,260.55v-8.81h1.34V253a3.17,3.17,0,0,1,2.81-1.45,3.65,3.65,0,0,1,1.46.28,2.2,2.2,0,0,1,1,.76,2.89,2.89,0,0,1,.47,1.1,9.28,9.28,0,0,1,.08,1.45v5.42H290v-5.36a3.86,3.86,0,0,0-.18-1.36,1.38,1.38,0,0,0-.62-.73,1.94,1.94,0,0,0-1-.27,2.43,2.43,0,0,0-1.65.61,3,3,0,0,0-.69,2.3v4.81Z"/><path class="cls-5" d="M299.54,260.55v-1.11a2.75,2.75,0,0,1-2.46,1.31,3.43,3.43,0,0,1-1.94-.58,3.83,3.83,0,0,1-1.37-1.62,5.53,5.53,0,0,1-.49-2.4,6.32,6.32,0,0,1,.44-2.39,3.47,3.47,0,0,1,1.32-1.65,3.55,3.55,0,0,1,2-.57,3,3,0,0,1,1.42.33,3.08,3.08,0,0,1,1,.88v-4.37h1.49v12.17Zm-4.72-4.4a3.84,3.84,0,0,0,.71,2.53,2.16,2.16,0,0,0,1.69.84,2.09,2.09,0,0,0,1.66-.8,3.66,3.66,0,0,0,.69-2.44,4.17,4.17,0,0,0-.7-2.66,2.17,2.17,0,0,0-1.72-.85,2.07,2.07,0,0,0-1.66.82A4,4,0,0,0,294.82,256.15Z"/><path class="cls-5" d="M302.69,256.9v-1.5h4.6v1.5Z"/><path class="cls-5" d="M316.37,259.12v1.43h-8a2.65,2.65,0,0,1,.18-1,5.44,5.44,0,0,1,1-1.61,15,15,0,0,1,1.95-1.85,16,16,0,0,0,2.68-2.57,3.09,3.09,0,0,0,.7-1.8,2,2,0,0,0-.63-1.5,2.3,2.3,0,0,0-1.66-.61,2.36,2.36,0,0,0-1.73.65,2.43,2.43,0,0,0-.65,1.79l-1.54-.16a3.8,3.8,0,0,1,1.19-2.62,4.06,4.06,0,0,1,2.76-.9,3.9,3.9,0,0,1,2.78,1,3.2,3.2,0,0,1,1,2.41,3.65,3.65,0,0,1-.3,1.44,5.61,5.61,0,0,1-1,1.48,22.54,22.54,0,0,1-2.31,2.14c-.89.76-1.47,1.27-1.72,1.54a4.14,4.14,0,0,0-.63.81Z"/><path class="cls-5" d="M317.81,256.9v-1.5h4.59v1.5Z"/><path class="cls-5" d="M330.09,257.71l1.54.19a3.68,3.68,0,0,1-1.35,2.1,4.07,4.07,0,0,1-2.53.75,4,4,0,0,1-3.06-1.19,4.63,4.63,0,0,1-1.14-3.34,4.87,4.87,0,0,1,1.15-3.45,3.86,3.86,0,0,1,3-1.23,3.78,3.78,0,0,1,2.89,1.2,4.77,4.77,0,0,1,1.12,3.39c0,.09,0,.22,0,.4H325.1a3.37,3.37,0,0,0,.82,2.22,2.46,2.46,0,0,0,1.84.77,2.29,2.29,0,0,0,1.41-.43A3,3,0,0,0,330.09,257.71Zm-4.91-2.41h4.92a3,3,0,0,0-.56-1.67,2.28,2.28,0,0,0-1.85-.86,2.34,2.34,0,0,0-1.73.68A2.74,2.74,0,0,0,325.18,255.3Z"/><path class="cls-5" d="M333.51,260.55v-8.81h1.34V253a3.17,3.17,0,0,1,2.81-1.45,3.65,3.65,0,0,1,1.46.28,2.2,2.2,0,0,1,1,.76,2.89,2.89,0,0,1,.47,1.1,9.28,9.28,0,0,1,.08,1.45v5.42h-1.49v-5.36a3.86,3.86,0,0,0-.18-1.36,1.38,1.38,0,0,0-.62-.73,1.94,1.94,0,0,0-1-.27,2.43,2.43,0,0,0-1.65.61,3,3,0,0,0-.69,2.3v4.81Z"/><path class="cls-5" d="M348.68,260.55v-1.11a2.75,2.75,0,0,1-2.46,1.31,3.43,3.43,0,0,1-1.94-.58,3.83,3.83,0,0,1-1.37-1.62,5.53,5.53,0,0,1-.49-2.4,6.32,6.32,0,0,1,.44-2.39,3.44,3.44,0,0,1,3.29-2.22,3,3,0,0,1,1.42.33,3.08,3.08,0,0,1,1,.88v-4.37h1.49v12.17Zm-4.72-4.4a3.84,3.84,0,0,0,.71,2.53,2.16,2.16,0,0,0,1.69.84,2.08,2.08,0,0,0,1.66-.8,3.66,3.66,0,0,0,.69-2.44,4.17,4.17,0,0,0-.7-2.66,2.17,2.17,0,0,0-1.72-.85,2.07,2.07,0,0,0-1.66.82A4,4,0,0,0,344,256.15Z"/><rect class="cls-3" x="95.33" y="184.67" width="96.13" height="38.3" rx="4.21"/><path class="cls-5" d="M104.61,208.12V196h1.6v12.17Z"/><path class="cls-5" d="M108.86,208.12V199.3h1.35v1.26a3.17,3.17,0,0,1,2.8-1.46,3.71,3.71,0,0,1,1.47.29,2.32,2.32,0,0,1,1,.75,2.78,2.78,0,0,1,.46,1.11,7.83,7.83,0,0,1,.09,1.45v5.42h-1.5v-5.36a4,4,0,0,0-.17-1.37,1.44,1.44,0,0,0-.62-.72,2,2,0,0,0-1-.27,2.39,2.39,0,0,0-1.65.61,3,3,0,0,0-.69,2.29v4.82Z"/><path class="cls-5" d="M121.58,206.78l.22,1.32a5.52,5.52,0,0,1-1.13.13,2.6,2.6,0,0,1-1.27-.25,1.53,1.53,0,0,1-.63-.68,5.42,5.42,0,0,1-.18-1.76v-5.07H117.5V199.3h1.09v-2.18l1.49-.9v3.08h1.5v1.17h-1.5v5.15a2.35,2.35,0,0,0,.08.82.59.59,0,0,0,.25.29,1,1,0,0,0,.51.11A4.7,4.7,0,0,0,121.58,206.78Z"/><path class="cls-5" d="M129.08,205.28l1.54.19a3.75,3.75,0,0,1-1.35,2.1,4.07,4.07,0,0,1-2.53.75,4,4,0,0,1-3.06-1.19,4.65,4.65,0,0,1-1.14-3.34,4.85,4.85,0,0,1,1.15-3.46,3.86,3.86,0,0,1,3-1.23,3.79,3.79,0,0,1,2.89,1.21,4.76,4.76,0,0,1,1.12,3.38c0,.09,0,.23,0,.4h-6.57a3.4,3.4,0,0,0,.82,2.23,2.46,2.46,0,0,0,1.84.77,2.24,2.24,0,0,0,1.4-.43A2.9,2.9,0,0,0,129.08,205.28Zm-4.91-2.42h4.92a2.91,2.91,0,0,0-.56-1.66,2.28,2.28,0,0,0-1.85-.87A2.35,2.35,0,0,0,125,201,2.71,2.71,0,0,0,124.17,202.86Z"/><path class="cls-5" d="M132.22,208.85l1.45.21a1.4,1.4,0,0,0,.51,1,2.47,2.47,0,0,0,1.52.42,2.63,2.63,0,0,0,1.6-.42,2,2,0,0,0,.77-1.16,10,10,0,0,0,.1-1.92,3.06,3.06,0,0,1-2.44,1.16,3.33,3.33,0,0,1-2.81-1.31,5,5,0,0,1-1-3.15,5.77,5.77,0,0,1,.46-2.33,3.47,3.47,0,0,1,3.36-2.23,3.13,3.13,0,0,1,2.57,1.27V199.3h1.38v7.62a7.19,7.19,0,0,1-.42,2.92,3.06,3.06,0,0,1-1.33,1.36,4.6,4.6,0,0,1-2.23.5,4.25,4.25,0,0,1-2.55-.71A2.41,2.41,0,0,1,132.22,208.85Zm1.24-5.3a3.86,3.86,0,0,0,.69,2.54,2.28,2.28,0,0,0,3.45,0,3.68,3.68,0,0,0,.7-2.49,3.61,3.61,0,0,0-.72-2.44,2.22,2.22,0,0,0-1.73-.82,2.15,2.15,0,0,0-1.69.81A3.56,3.56,0,0,0,133.46,203.55Z"/><path class="cls-5" d="M141.93,208.12V199.3h1.35v1.34a3.59,3.59,0,0,1,.95-1.24,1.65,1.65,0,0,1,1-.3,2.84,2.84,0,0,1,1.53.49l-.51,1.38a2.2,2.2,0,0,0-1.1-.32,1.47,1.47,0,0,0-.88.29,1.6,1.6,0,0,0-.55.82,5.67,5.67,0,0,0-.25,1.74v4.62Z"/><path class="cls-5" d="M153.36,207a5.68,5.68,0,0,1-1.59,1,4.77,4.77,0,0,1-1.65.29,3.21,3.21,0,0,1-2.23-.71,2.33,2.33,0,0,1-.78-1.82,2.37,2.37,0,0,1,.29-1.18,2.46,2.46,0,0,1,.77-.86,3.8,3.8,0,0,1,1.08-.49,9.82,9.82,0,0,1,1.32-.22,14,14,0,0,0,2.67-.52c0-.2,0-.33,0-.39a1.61,1.61,0,0,0-.43-1.28,2.47,2.47,0,0,0-1.7-.51,2.58,2.58,0,0,0-1.55.37,2.24,2.24,0,0,0-.75,1.31l-1.46-.2a3.54,3.54,0,0,1,.66-1.52,2.8,2.8,0,0,1,1.32-.88,5.79,5.79,0,0,1,2-.32,5.2,5.2,0,0,1,1.83.27,2.43,2.43,0,0,1,1,.67,2.37,2.37,0,0,1,.47,1,8.66,8.66,0,0,1,.07,1.38v2a19.67,19.67,0,0,0,.1,2.64,3.19,3.19,0,0,0,.37,1.06h-1.56A3.41,3.41,0,0,1,153.36,207Zm-.12-3.34a10.74,10.74,0,0,1-2.44.57,5.57,5.57,0,0,0-1.3.3,1.24,1.24,0,0,0-.59.48,1.32,1.32,0,0,0,.24,1.71,2,2,0,0,0,1.33.4,3.1,3.1,0,0,0,1.53-.38,2.34,2.34,0,0,0,1-1,3.65,3.65,0,0,0,.24-1.5Z"/><path class="cls-5" d="M160.33,206.78l.21,1.32a5.37,5.37,0,0,1-1.13.13,2.58,2.58,0,0,1-1.26-.25,1.42,1.42,0,0,1-.63-.68,5.42,5.42,0,0,1-.18-1.76v-5.07h-1.1V199.3h1.1v-2.18l1.49-.9v3.08h1.5v1.17h-1.5v5.15a2.75,2.75,0,0,0,.07.82.66.66,0,0,0,.26.29,1,1,0,0,0,.51.11A4.7,4.7,0,0,0,160.33,206.78Z"/><path class="cls-5" d="M161.8,197.67V196h1.49v1.72Zm0,10.45V199.3h1.49v8.82Z"/><path class="cls-5" d="M165,203.71a4.55,4.55,0,0,1,1.36-3.63,4.11,4.11,0,0,1,2.77-1,3.91,3.91,0,0,1,3,1.2,4.52,4.52,0,0,1,1.16,3.29,5.82,5.82,0,0,1-.51,2.67,3.64,3.64,0,0,1-1.49,1.52,4.32,4.32,0,0,1-2.13.54,4,4,0,0,1-3-1.19A4.74,4.74,0,0,1,165,203.71Zm1.53,0a3.79,3.79,0,0,0,.74,2.54,2.39,2.39,0,0,0,1.86.84,2.34,2.34,0,0,0,1.85-.85,3.79,3.79,0,0,0,.74-2.58,3.62,3.62,0,0,0-.74-2.48,2.47,2.47,0,0,0-3.71,0A3.75,3.75,0,0,0,166.54,203.71Z"/><path class="cls-5" d="M175,208.12V199.3h1.34v1.26a3.19,3.19,0,0,1,2.81-1.46,3.74,3.74,0,0,1,1.47.29,2.38,2.38,0,0,1,1,.75,2.93,2.93,0,0,1,.46,1.11,8.09,8.09,0,0,1,.08,1.45v5.42h-1.49v-5.36a3.92,3.92,0,0,0-.18-1.37,1.42,1.42,0,0,0-.61-.72,2,2,0,0,0-1.05-.27,2.38,2.38,0,0,0-1.64.61,2.93,2.93,0,0,0-.7,2.29v4.82Z"/><path class="cls-5" d="M463.9,130.29V118.12h1.65l6.39,9.56v-9.56h1.55v12.17h-1.66l-6.39-9.56v9.56Z"/><path class="cls-5" d="M475.44,125.88a4.52,4.52,0,0,1,1.37-3.62,4,4,0,0,1,2.77-1,3.93,3.93,0,0,1,3,1.19,4.52,4.52,0,0,1,1.15,3.29,5.89,5.89,0,0,1-.51,2.68,3.59,3.59,0,0,1-1.48,1.51,4.32,4.32,0,0,1-2.13.54,4,4,0,0,1-3-1.19A4.74,4.74,0,0,1,475.44,125.88Zm1.54,0a3.78,3.78,0,0,0,.74,2.54,2.36,2.36,0,0,0,1.86.84,2.34,2.34,0,0,0,1.85-.85,3.84,3.84,0,0,0,.74-2.58,3.59,3.59,0,0,0-.75-2.47,2.33,2.33,0,0,0-1.84-.85,2.36,2.36,0,0,0-1.86.84A3.75,3.75,0,0,0,477,125.88Z"/><path class="cls-5" d="M485.46,130.29v-8.81h1.34v1.25a3.17,3.17,0,0,1,2.81-1.45,3.65,3.65,0,0,1,1.46.28,2.26,2.26,0,0,1,1,.75,2.94,2.94,0,0,1,.47,1.11,9.19,9.19,0,0,1,.08,1.45v5.42h-1.5v-5.36a4,4,0,0,0-.17-1.37,1.44,1.44,0,0,0-.62-.72,1.94,1.94,0,0,0-1-.27,2.39,2.39,0,0,0-1.65.61,3,3,0,0,0-.69,2.3v4.81Z"/><path class="cls-5" d="M500,130.29v-7.65h-1.32v-1.16H500v-.94a4,4,0,0,1,.16-1.32,1.83,1.83,0,0,1,.76-.94,2.65,2.65,0,0,1,1.52-.37,7.17,7.17,0,0,1,1.39.15l-.22,1.31a4.61,4.61,0,0,0-.88-.09,1.33,1.33,0,0,0-1,.29,1.59,1.59,0,0,0-.28,1.09v.82h1.71v1.16h-1.71v7.65Z"/><path class="cls-5" d="M510.13,130.29V129a3.23,3.23,0,0,1-2.8,1.49,3.55,3.55,0,0,1-1.45-.3,2.45,2.45,0,0,1-1-.75,3,3,0,0,1-.46-1.11,7.66,7.66,0,0,1-.09-1.39v-5.46h1.5v4.89a8.81,8.81,0,0,0,.09,1.57,1.59,1.59,0,0,0,.59.93,1.91,1.91,0,0,0,1.13.33,2.49,2.49,0,0,0,1.27-.34,1.89,1.89,0,0,0,.83-.94,4.73,4.73,0,0,0,.25-1.72v-4.72h1.49v8.81Z"/><path class="cls-5" d="M513.81,130.29v-8.81h1.35v1.25a3.15,3.15,0,0,1,2.8-1.45,3.74,3.74,0,0,1,1.47.28,2.38,2.38,0,0,1,1,.75,2.93,2.93,0,0,1,.46,1.11,8.09,8.09,0,0,1,.08,1.45v5.42h-1.49v-5.36a4.27,4.27,0,0,0-.17-1.37,1.49,1.49,0,0,0-.62-.72,2,2,0,0,0-1-.27,2.39,2.39,0,0,0-1.65.61,3,3,0,0,0-.69,2.3v4.81Z"/><path class="cls-5" d="M529,127.06l1.47.19a3.8,3.8,0,0,1-1.24,2.38,3.59,3.59,0,0,1-2.43.86,3.77,3.77,0,0,1-2.91-1.18,4.77,4.77,0,0,1-1.1-3.39,6.19,6.19,0,0,1,.47-2.5,3.34,3.34,0,0,1,1.44-1.61,4.27,4.27,0,0,1,2.11-.53,3.7,3.7,0,0,1,2.35.72,3.42,3.42,0,0,1,1.17,2.07l-1.46.22a2.45,2.45,0,0,0-.73-1.34,1.9,1.9,0,0,0-1.27-.45,2.32,2.32,0,0,0-1.84.81,3.86,3.86,0,0,0-.71,2.56,4,4,0,0,0,.69,2.59,2.21,2.21,0,0,0,1.77.8,2.08,2.08,0,0,0,1.47-.54A2.71,2.71,0,0,0,529,127.06Z"/><path class="cls-5" d="M535,129l.21,1.32a5.43,5.43,0,0,1-1.13.14,2.57,2.57,0,0,1-1.26-.26,1.42,1.42,0,0,1-.63-.68,5.38,5.38,0,0,1-.18-1.76v-5.07h-1.1v-1.16H532v-2.19l1.49-.89v3.08H535v1.16h-1.5v5.15a2.75,2.75,0,0,0,.07.82.61.61,0,0,0,.26.29.92.92,0,0,0,.51.11A4.7,4.7,0,0,0,535,129Z"/><path class="cls-5" d="M536.5,119.84v-1.72H538v1.72Zm0,10.45v-8.81H538v8.81Z"/><path class="cls-5" d="M539.71,125.88a4.51,4.51,0,0,1,1.36-3.62,4.07,4.07,0,0,1,2.77-1,3.94,3.94,0,0,1,3,1.19,4.56,4.56,0,0,1,1.15,3.29,5.89,5.89,0,0,1-.51,2.68A3.61,3.61,0,0,1,546,130a4.32,4.32,0,0,1-2.13.54,4,4,0,0,1-3-1.19A4.74,4.74,0,0,1,539.71,125.88Zm1.53,0a3.78,3.78,0,0,0,.74,2.54,2.39,2.39,0,0,0,1.86.84,2.34,2.34,0,0,0,1.85-.85,3.79,3.79,0,0,0,.74-2.58,3.64,3.64,0,0,0-.74-2.47,2.35,2.35,0,0,0-1.85-.85,2.39,2.39,0,0,0-1.86.84A3.75,3.75,0,0,0,541.24,125.88Z"/><path class="cls-5" d="M549.72,130.29v-8.81h1.34v1.25a3.18,3.18,0,0,1,2.81-1.45,3.65,3.65,0,0,1,1.46.28,2.26,2.26,0,0,1,1,.75,2.79,2.79,0,0,1,.47,1.11,8.09,8.09,0,0,1,.08,1.45v5.42h-1.49v-5.36a4,4,0,0,0-.18-1.37,1.42,1.42,0,0,0-.61-.72,2,2,0,0,0-1.05-.27,2.38,2.38,0,0,0-1.64.61,3,3,0,0,0-.7,2.3v4.81Z"/><path class="cls-5" d="M564.93,129.2a5.63,5.63,0,0,1-1.6,1,4.69,4.69,0,0,1-1.65.29,3.21,3.21,0,0,1-2.23-.71,2.34,2.34,0,0,1-.78-1.81,2.49,2.49,0,0,1,.29-1.19,2.55,2.55,0,0,1,.77-.86,3.78,3.78,0,0,1,1.08-.48,9.71,9.71,0,0,1,1.33-.23,13.42,13.42,0,0,0,2.66-.51c0-.21,0-.34,0-.39a1.67,1.67,0,0,0-.42-1.29,2.51,2.51,0,0,0-1.71-.51,2.66,2.66,0,0,0-1.55.37,2.23,2.23,0,0,0-.74,1.31l-1.47-.2a3.76,3.76,0,0,1,.66-1.51,2.79,2.79,0,0,1,1.32-.89,5.84,5.84,0,0,1,2-.31,5.57,5.57,0,0,1,1.84.26,2.12,2.12,0,0,1,1.5,1.69,8.49,8.49,0,0,1,.07,1.38v2a19.48,19.48,0,0,0,.1,2.63,3.21,3.21,0,0,0,.38,1.06h-1.56A3,3,0,0,1,564.93,129.2Zm-.13-3.33a10.69,10.69,0,0,1-2.44.56,5.7,5.7,0,0,0-1.3.3,1.3,1.3,0,0,0-.8,1.2,1.27,1.27,0,0,0,.45,1,1.94,1.94,0,0,0,1.33.4,3.07,3.07,0,0,0,1.53-.38,2.29,2.29,0,0,0,1-1,3.65,3.65,0,0,0,.24-1.5Z"/><path class="cls-5" d="M568.6,130.29V118.12h1.49v12.17Z"/><path class="cls-5" d="M580.39,129l.22,1.32a5.51,5.51,0,0,1-1.13.14,2.55,2.55,0,0,1-1.26-.26,1.5,1.5,0,0,1-.64-.68,5.38,5.38,0,0,1-.18-1.76v-5.07h-1.09v-1.16h1.09v-2.19l1.49-.89v3.08h1.5v1.16h-1.5v5.15a2.35,2.35,0,0,0,.08.82.57.57,0,0,0,.26.29.88.88,0,0,0,.51.11A4.7,4.7,0,0,0,580.39,129Z"/><path class="cls-5" d="M587.89,127.45l1.54.19a3.75,3.75,0,0,1-1.35,2.1,4.07,4.07,0,0,1-2.53.75,4,4,0,0,1-3.06-1.19,4.65,4.65,0,0,1-1.14-3.34,4.9,4.9,0,0,1,1.15-3.46,3.89,3.89,0,0,1,3-1.22,3.78,3.78,0,0,1,2.89,1.2,4.77,4.77,0,0,1,1.12,3.39c0,.08,0,.22,0,.4H582.9a3.39,3.39,0,0,0,.82,2.22,2.44,2.44,0,0,0,1.84.77,2.29,2.29,0,0,0,1.41-.43A3,3,0,0,0,587.89,127.45ZM583,125h4.92a2.92,2.92,0,0,0-.56-1.67,2.3,2.3,0,0,0-1.85-.87,2.35,2.35,0,0,0-1.73.69A2.74,2.74,0,0,0,583,125Z"/><path class="cls-5" d="M590.71,127.66l1.48-.23a2.06,2.06,0,0,0,.69,1.36,2.45,2.45,0,0,0,1.59.47,2.35,2.35,0,0,0,1.53-.42,1.24,1.24,0,0,0,.49-1,.91.91,0,0,0-.43-.8,6.68,6.68,0,0,0-1.53-.5,14.2,14.2,0,0,1-2.28-.72,2.09,2.09,0,0,1-1-.84,2.21,2.21,0,0,1-.33-1.18,2.3,2.3,0,0,1,.27-1.1,2.42,2.42,0,0,1,.73-.83,3.12,3.12,0,0,1,.95-.44,4.85,4.85,0,0,1,1.29-.17,5.12,5.12,0,0,1,1.83.3,2.4,2.4,0,0,1,1.15.8,3.25,3.25,0,0,1,.52,1.37l-1.46.2a1.58,1.58,0,0,0-.58-1.06,2.09,2.09,0,0,0-1.35-.39,2.44,2.44,0,0,0-1.47.35,1,1,0,0,0-.44.79.8.8,0,0,0,.18.52,1.28,1.28,0,0,0,.58.4q.23.09,1.32.39a18.57,18.57,0,0,1,2.21.69,2.25,2.25,0,0,1,1,.78,2.19,2.19,0,0,1,.36,1.28,2.45,2.45,0,0,1-.44,1.41,2.77,2.77,0,0,1-1.25,1,4.61,4.61,0,0,1-1.86.36,4.17,4.17,0,0,1-2.62-.71A3.37,3.37,0,0,1,590.71,127.66Z"/><path class="cls-5" d="M603.07,129l.21,1.32a5.43,5.43,0,0,1-1.12.14,2.59,2.59,0,0,1-1.27-.26,1.47,1.47,0,0,1-.63-.68,5.38,5.38,0,0,1-.18-1.76v-5.07H599v-1.16h1.09v-2.19l1.49-.89v3.08h1.5v1.16h-1.5v5.15a2.35,2.35,0,0,0,.08.82.55.55,0,0,0,.25.29.92.92,0,0,0,.51.11A4.7,4.7,0,0,0,603.07,129Z"/><path class="cls-5" d="M604.54,119.84v-1.72H606v1.72Zm0,10.45v-8.81H606v8.81Z"/><path class="cls-5" d="M608.31,130.29v-8.81h1.34v1.25a3.17,3.17,0,0,1,2.81-1.45,3.65,3.65,0,0,1,1.46.28,2.26,2.26,0,0,1,1,.75,2.94,2.94,0,0,1,.47,1.11,9.19,9.19,0,0,1,.08,1.45v5.42H614v-5.36a4,4,0,0,0-.18-1.37,1.39,1.39,0,0,0-.62-.72,1.94,1.94,0,0,0-1-.27,2.41,2.41,0,0,0-1.65.61,3,3,0,0,0-.69,2.3v4.81Z"/><path class="cls-5" d="M617.49,131l1.45.22a1.38,1.38,0,0,0,.51,1,2.52,2.52,0,0,0,1.52.41,2.72,2.72,0,0,0,1.6-.41,2.08,2.08,0,0,0,.76-1.17,9.63,9.63,0,0,0,.11-1.91,3.07,3.07,0,0,1-2.44,1.15,3.36,3.36,0,0,1-2.82-1.31,5.06,5.06,0,0,1-1-3.15,5.8,5.8,0,0,1,.46-2.33,3.48,3.48,0,0,1,3.36-2.22,3.15,3.15,0,0,1,2.57,1.26v-1.06H625v7.62a7.17,7.17,0,0,1-.42,2.91,3,3,0,0,1-1.33,1.36,4.64,4.64,0,0,1-2.24.5,4.2,4.2,0,0,1-2.54-.71A2.4,2.4,0,0,1,617.49,131Zm1.24-5.29a3.83,3.83,0,0,0,.68,2.53,2.29,2.29,0,0,0,3.46,0,4.69,4.69,0,0,0,0-4.93,2.25,2.25,0,0,0-1.73-.82,2.17,2.17,0,0,0-1.7.81A3.63,3.63,0,0,0,618.73,125.73Z"/><path class="cls-1" d="M137.6,97.71V79.28a5,5,0,0,1,5-5H539.34a5,5,0,0,1,5,5V97.71"/><polygon class="cls-2" points="142.08 96.4 137.6 104.17 133.11 96.4 142.08 96.4"/><polygon class="cls-2" points="539.83 96.4 544.32 104.17 548.81 96.4 539.83 96.4"/><path class="cls-1" d="M427.74,211.26V189.74a2.6,2.6,0,0,1,2.6-2.59H647.2a2.6,2.6,0,0,1,2.6,2.59v21.52"/><polygon class="cls-2" points="432.23 209.95 427.75 217.72 423.26 209.95 432.23 209.95"/><polygon class="cls-2" points="645.31 209.95 649.8 217.72 654.28 209.95 645.31 209.95"/><path class="cls-1" d="M34.13,177.33v-7.55a3.07,3.07,0,0,1,3.29-2.8H300a3.08,3.08,0,0,1,3.3,2.8v58.55"/><polygon class="cls-2" points="38.62 176.02 34.13 183.79 29.64 176.02 38.62 176.02"/><polygon class="cls-2" points="298.79 227.02 303.28 234.79 307.76 227.02 298.79 227.02"/><line class="cls-1" x1="340.96" y1="46.72" x2="340.96" y2="74.06"/><rect class="cls-6" x="230.16" y="8.02" width="222.13" height="38.3" rx="4.21"/><path class="cls-5" d="M251.62,32.61V21.88h-4V20.44h9.64v1.44h-4V32.61Z"/><path class="cls-5" d="M257.71,36l-.17-1.4a3.32,3.32,0,0,0,.86.14,1.6,1.6,0,0,0,.79-.17,1.3,1.3,0,0,0,.49-.47,6.65,6.65,0,0,0,.46-1.11l.13-.36-3.34-8.84h1.61l1.83,5.11c.24.65.45,1.33.64,2a20.28,20.28,0,0,1,.62-2l1.88-5.14H265l-3.35,9a16.88,16.88,0,0,1-.84,2,2.93,2.93,0,0,1-.91,1.08,2.15,2.15,0,0,1-1.23.35A2.77,2.77,0,0,1,257.71,36Z"/><path class="cls-5" d="M266.28,36V23.79h1.36v1.15a3.42,3.42,0,0,1,1.08-1,3.07,3.07,0,0,1,1.47-.33,3.43,3.43,0,0,1,3.3,2.22,6,6,0,0,1,.44,2.32,5.77,5.77,0,0,1-.49,2.43,3.7,3.7,0,0,1-3.36,2.24,2.85,2.85,0,0,1-1.34-.32,3,3,0,0,1-1-.79V36Zm1.35-7.74a3.83,3.83,0,0,0,.69,2.52,2.11,2.11,0,0,0,1.67.81,2.15,2.15,0,0,0,1.7-.84,4,4,0,0,0,.71-2.61,3.92,3.92,0,0,0-.69-2.53,2.06,2.06,0,0,0-3.35.06A4,4,0,0,0,267.63,28.25Z"/><path class="cls-5" d="M281.76,29.77l1.55.19a3.76,3.76,0,0,1-1.36,2.1,4.56,4.56,0,0,1-5.58-.44,4.65,4.65,0,0,1-1.14-3.34,4.85,4.85,0,0,1,1.15-3.46,3.85,3.85,0,0,1,3-1.22,3.78,3.78,0,0,1,2.89,1.2,4.81,4.81,0,0,1,1.12,3.39c0,.08,0,.22,0,.39h-6.57a3.4,3.4,0,0,0,.82,2.23,2.44,2.44,0,0,0,1.84.77,2.24,2.24,0,0,0,1.4-.43A2.82,2.82,0,0,0,281.76,29.77Zm-4.9-2.41h4.92a3,3,0,0,0-.56-1.67,2.3,2.3,0,0,0-1.85-.87,2.39,2.39,0,0,0-1.74.69A2.78,2.78,0,0,0,276.86,27.36Z"/><path class="cls-5" d="M284.59,30l1.47-.23a2.11,2.11,0,0,0,.7,1.36,2.45,2.45,0,0,0,1.59.47,2.32,2.32,0,0,0,1.52-.42,1.24,1.24,0,0,0,.5-1,.9.9,0,0,0-.44-.8,6.7,6.7,0,0,0-1.52-.51,13.45,13.45,0,0,1-2.28-.71,2.18,2.18,0,0,1-1.3-2,2.3,2.3,0,0,1,.28-1.1,2.42,2.42,0,0,1,.73-.83,3.12,3.12,0,0,1,1-.44,4.85,4.85,0,0,1,1.29-.17,5.3,5.3,0,0,1,1.82.29,2.46,2.46,0,0,1,1.16.81,3.25,3.25,0,0,1,.52,1.37l-1.47.2a1.53,1.53,0,0,0-.57-1.06,2.09,2.09,0,0,0-1.35-.39,2.48,2.48,0,0,0-1.47.34,1,1,0,0,0-.44.8.8.8,0,0,0,.18.52,1.3,1.3,0,0,0,.58.4c.14.06.58.19,1.31.38a19.76,19.76,0,0,1,2.22.7,2.25,2.25,0,0,1,1,.78,2.17,2.17,0,0,1,.36,1.28,2.52,2.52,0,0,1-.44,1.41,2.8,2.8,0,0,1-1.26,1,4.54,4.54,0,0,1-1.86.36,4.16,4.16,0,0,1-2.61-.71A3.33,3.33,0,0,1,284.59,30Z"/><path class="cls-5" d="M297.85,28.2a4.55,4.55,0,0,1,1.36-3.62,4.09,4.09,0,0,1,2.78-1,3.93,3.93,0,0,1,3,1.19,4.52,4.52,0,0,1,1.15,3.29,5.82,5.82,0,0,1-.51,2.67,3.58,3.58,0,0,1-1.49,1.52,4.31,4.31,0,0,1-2.12.54,4,4,0,0,1-3-1.19A4.74,4.74,0,0,1,297.85,28.2Zm1.54,0a3.72,3.72,0,0,0,.74,2.54,2.46,2.46,0,0,0,3.71,0,3.84,3.84,0,0,0,.74-2.58,3.64,3.64,0,0,0-.75-2.48,2.46,2.46,0,0,0-3.7,0A3.69,3.69,0,0,0,299.39,28.2Z"/><path class="cls-5" d="M308.22,32.61V25H306.9V23.79h1.32v-.93a3.94,3.94,0,0,1,.16-1.32,1.9,1.9,0,0,1,.76-.95,2.73,2.73,0,0,1,1.52-.36,7.25,7.25,0,0,1,1.39.15l-.22,1.31a4.61,4.61,0,0,0-.88-.09,1.31,1.31,0,0,0-1,.29A1.58,1.58,0,0,0,309.7,23v.81h1.72V25H309.7v7.65Z"/><path class="cls-5" d="M316.71,30l1.48-.23a2.06,2.06,0,0,0,.69,1.36,2.45,2.45,0,0,0,1.59.47,2.33,2.33,0,0,0,1.53-.42,1.27,1.27,0,0,0,.5-1,.92.92,0,0,0-.44-.8,7.06,7.06,0,0,0-1.53-.51,13.45,13.45,0,0,1-2.28-.71,2.26,2.26,0,0,1-1-.84,2.21,2.21,0,0,1-.33-1.18,2.3,2.3,0,0,1,.27-1.1,2.42,2.42,0,0,1,.73-.83,3.24,3.24,0,0,1,1-.44,5,5,0,0,1,1.29-.17,5.36,5.36,0,0,1,1.83.29,2.51,2.51,0,0,1,1.16.81,3.25,3.25,0,0,1,.51,1.37l-1.46.2a1.58,1.58,0,0,0-.58-1.06,2.09,2.09,0,0,0-1.35-.39,2.52,2.52,0,0,0-1.47.34,1,1,0,0,0-.44.8.76.76,0,0,0,.19.52,1.26,1.26,0,0,0,.57.4c.15.06.59.19,1.32.38a19.41,19.41,0,0,1,2.21.7A2.1,2.1,0,0,1,324,30a2.51,2.51,0,0,1-.43,1.41,2.8,2.8,0,0,1-1.26,1,4.61,4.61,0,0,1-1.86.36,4.17,4.17,0,0,1-2.62-.71A3.37,3.37,0,0,1,316.71,30Z"/><path class="cls-5" d="M325.25,28.2a4.55,4.55,0,0,1,1.36-3.62,4.09,4.09,0,0,1,2.78-1,3.93,3.93,0,0,1,3,1.19,4.52,4.52,0,0,1,1.15,3.29,5.82,5.82,0,0,1-.51,2.67,3.58,3.58,0,0,1-1.49,1.52,4.29,4.29,0,0,1-2.12.54,4,4,0,0,1-3-1.19A4.74,4.74,0,0,1,325.25,28.2Zm1.54,0a3.72,3.72,0,0,0,.74,2.54,2.46,2.46,0,0,0,3.71,0,3.84,3.84,0,0,0,.74-2.58,3.64,3.64,0,0,0-.75-2.48,2.46,2.46,0,0,0-3.7,0A3.69,3.69,0,0,0,326.79,28.2Z"/><path class="cls-5" d="M335.62,32.61V25H334.3V23.79h1.32v-.93a3.94,3.94,0,0,1,.16-1.32,1.9,1.9,0,0,1,.76-.95,2.73,2.73,0,0,1,1.52-.36,7.17,7.17,0,0,1,1.39.15l-.22,1.31a4.61,4.61,0,0,0-.88-.09,1.33,1.33,0,0,0-1,.29,1.59,1.59,0,0,0-.28,1.09v.81h1.71V25h-1.71v7.65Z"/><path class="cls-5" d="M343.25,31.27l.21,1.32a5.43,5.43,0,0,1-1.13.14,2.57,2.57,0,0,1-1.26-.26,1.42,1.42,0,0,1-.63-.68,5.42,5.42,0,0,1-.18-1.76V25h-1.1V23.79h1.1V21.61l1.49-.89v3.07h1.5V25h-1.5v5.15a2.75,2.75,0,0,0,.07.82.61.61,0,0,0,.26.29.92.92,0,0,0,.51.11A4.7,4.7,0,0,0,343.25,31.27Z"/><path class="cls-5" d="M346.34,32.61l-2.7-8.82h1.54l1.4,5.09.53,1.9c0-.1.17-.7.45-1.82L349,23.79h1.53l1.32,5.12.44,1.68.51-1.7,1.51-5.1h1.45L353,32.61h-1.56L350,27.33l-.34-1.5-1.78,6.78Z"/><path class="cls-5" d="M362.74,31.52a5.63,5.63,0,0,1-1.6,1,4.69,4.69,0,0,1-1.65.29,3.21,3.21,0,0,1-2.23-.71,2.34,2.34,0,0,1-.78-1.81,2.49,2.49,0,0,1,.29-1.19,2.58,2.58,0,0,1,.78-.86,3.89,3.89,0,0,1,1.07-.49,12,12,0,0,1,1.33-.22,14,14,0,0,0,2.66-.51c0-.21,0-.34,0-.39a1.67,1.67,0,0,0-.42-1.29,2.49,2.49,0,0,0-1.7-.51,2.69,2.69,0,0,0-1.56.37,2.28,2.28,0,0,0-.74,1.31l-1.46-.2a3.66,3.66,0,0,1,.65-1.52,2.9,2.9,0,0,1,1.32-.88,5.84,5.84,0,0,1,2-.31,5.24,5.24,0,0,1,1.84.26,2.39,2.39,0,0,1,1,.67,2.29,2.29,0,0,1,.47,1,8.43,8.43,0,0,1,.07,1.37v2a21.45,21.45,0,0,0,.1,2.63,3.21,3.21,0,0,0,.38,1.06H363A3,3,0,0,1,362.74,31.52Zm-.13-3.33a10.69,10.69,0,0,1-2.44.56,5.7,5.7,0,0,0-1.3.3,1.34,1.34,0,0,0-.59.48,1.28,1.28,0,0,0-.21.71,1.25,1.25,0,0,0,.46,1,1.91,1.91,0,0,0,1.32.4,3.07,3.07,0,0,0,1.53-.38,2.34,2.34,0,0,0,1-1,3.65,3.65,0,0,0,.24-1.5Z"/><path class="cls-5" d="M366.42,32.61V23.79h1.35v1.34a3.7,3.7,0,0,1,1-1.24,1.72,1.72,0,0,1,1-.29,2.91,2.91,0,0,1,1.53.48l-.51,1.38a2.2,2.2,0,0,0-1.1-.32,1.47,1.47,0,0,0-.88.29,1.6,1.6,0,0,0-.55.82,5.67,5.67,0,0,0-.25,1.74v4.62Z"/><path class="cls-5" d="M378.14,29.77l1.54.19a3.75,3.75,0,0,1-1.35,2.1,4.07,4.07,0,0,1-2.53.75,4,4,0,0,1-3.06-1.19,4.65,4.65,0,0,1-1.14-3.34,4.85,4.85,0,0,1,1.15-3.46,3.85,3.85,0,0,1,3-1.22,3.78,3.78,0,0,1,2.89,1.2,4.77,4.77,0,0,1,1.12,3.39c0,.08,0,.22,0,.39h-6.57a3.4,3.4,0,0,0,.82,2.23,2.46,2.46,0,0,0,1.84.77,2.24,2.24,0,0,0,1.4-.43A2.9,2.9,0,0,0,378.14,29.77Zm-4.91-2.41h4.92a2.92,2.92,0,0,0-.56-1.67,2.28,2.28,0,0,0-1.85-.87,2.35,2.35,0,0,0-1.73.69A2.74,2.74,0,0,0,373.23,27.36Z"/><path class="cls-5" d="M389.54,31.27l.22,1.32a5.51,5.51,0,0,1-1.13.14,2.55,2.55,0,0,1-1.26-.26,1.42,1.42,0,0,1-.63-.68,5.07,5.07,0,0,1-.19-1.76V25h-1.09V23.79h1.09V21.61l1.49-.89v3.07h1.5V25H388v5.15a2.35,2.35,0,0,0,.08.82.59.59,0,0,0,.25.29.92.92,0,0,0,.51.11A4.7,4.7,0,0,0,389.54,31.27Z"/><path class="cls-5" d="M397,29.77l1.54.19a3.75,3.75,0,0,1-1.35,2.1,4.07,4.07,0,0,1-2.53.75,4,4,0,0,1-3.06-1.19,4.65,4.65,0,0,1-1.14-3.34,4.9,4.9,0,0,1,1.15-3.46,3.85,3.85,0,0,1,3-1.22,3.78,3.78,0,0,1,2.89,1.2,4.77,4.77,0,0,1,1.12,3.39c0,.08,0,.22,0,.39h-6.57a3.4,3.4,0,0,0,.82,2.23,2.46,2.46,0,0,0,1.84.77,2.29,2.29,0,0,0,1.41-.43A3,3,0,0,0,397,29.77Zm-4.91-2.41h4.92a2.92,2.92,0,0,0-.56-1.67,2.28,2.28,0,0,0-1.85-.87,2.35,2.35,0,0,0-1.73.69A2.74,2.74,0,0,0,392.13,27.36Z"/><path class="cls-5" d="M399.86,30l1.48-.23a2.06,2.06,0,0,0,.69,1.36,2.45,2.45,0,0,0,1.59.47,2.35,2.35,0,0,0,1.53-.42,1.25,1.25,0,0,0,.49-1,.9.9,0,0,0-.44-.8,6.7,6.7,0,0,0-1.52-.51,13.45,13.45,0,0,1-2.28-.71,2.19,2.19,0,0,1-1.29-2,2.3,2.3,0,0,1,.27-1.1,2.42,2.42,0,0,1,.73-.83,3.12,3.12,0,0,1,.95-.44,4.85,4.85,0,0,1,1.29-.17,5.41,5.41,0,0,1,1.83.29,2.48,2.48,0,0,1,1.15.81,3.25,3.25,0,0,1,.52,1.37l-1.46.2a1.58,1.58,0,0,0-.58-1.06,2.09,2.09,0,0,0-1.35-.39,2.52,2.52,0,0,0-1.47.34,1,1,0,0,0-.44.8.8.8,0,0,0,.18.52,1.36,1.36,0,0,0,.58.4c.15.06.59.19,1.32.38a20.12,20.12,0,0,1,2.21.7,2.25,2.25,0,0,1,1,.78,2.17,2.17,0,0,1,.36,1.28,2.45,2.45,0,0,1-.44,1.41,2.77,2.77,0,0,1-1.25,1,4.61,4.61,0,0,1-1.86.36A4.17,4.17,0,0,1,401,32.1,3.37,3.37,0,0,1,399.86,30Z"/><path class="cls-5" d="M412.22,31.27l.21,1.32a5.43,5.43,0,0,1-1.12.14,2.59,2.59,0,0,1-1.27-.26,1.53,1.53,0,0,1-.63-.68,5.42,5.42,0,0,1-.18-1.76V25h-1.1V23.79h1.1V21.61l1.49-.89v3.07h1.5V25h-1.5v5.15a2.75,2.75,0,0,0,.07.82.61.61,0,0,0,.26.29.92.92,0,0,0,.51.11A4.7,4.7,0,0,0,412.22,31.27Z"/><path class="cls-5" d="M413.69,22.16V20.44h1.49v1.72Zm0,10.45V23.79h1.49v8.82Z"/><path class="cls-5" d="M417.46,32.61V23.79h1.34v1.26a3.17,3.17,0,0,1,2.81-1.45,3.65,3.65,0,0,1,1.46.28,2.26,2.26,0,0,1,1,.75,2.94,2.94,0,0,1,.47,1.11,9.19,9.19,0,0,1,.08,1.45v5.42h-1.49V27.25a3.92,3.92,0,0,0-.18-1.37,1.39,1.39,0,0,0-.62-.72,1.94,1.94,0,0,0-1-.27,2.43,2.43,0,0,0-1.65.61,3,3,0,0,0-.69,2.3v4.81Z"/><path class="cls-5" d="M426.64,33.34l1.45.22a1.4,1.4,0,0,0,.51,1,2.52,2.52,0,0,0,1.52.41,2.72,2.72,0,0,0,1.6-.41,2.08,2.08,0,0,0,.76-1.17,9.63,9.63,0,0,0,.11-1.91,3.07,3.07,0,0,1-2.44,1.15,3.36,3.36,0,0,1-2.82-1.31,5.08,5.08,0,0,1-1-3.15,5.94,5.94,0,0,1,.45-2.33,3.63,3.63,0,0,1,1.33-1.64,3.57,3.57,0,0,1,2-.58,3.15,3.15,0,0,1,2.57,1.26V23.79h1.38v7.62a7.19,7.19,0,0,1-.42,2.92,3,3,0,0,1-1.33,1.36,4.64,4.64,0,0,1-2.24.5,4.2,4.2,0,0,1-2.54-.71A2.41,2.41,0,0,1,426.64,33.34Zm1.23-5.3a3.84,3.84,0,0,0,.69,2.54,2.29,2.29,0,0,0,3.46,0,3.74,3.74,0,0,0,.69-2.49,3.68,3.68,0,0,0-.71-2.44,2.25,2.25,0,0,0-1.73-.82,2.17,2.17,0,0,0-1.7.81A3.62,3.62,0,0,0,427.87,28Z"/><line class="cls-1" x1="80.98" y1="168.6" x2="80.98" y2="228.33"/><polygon class="cls-2" points="76.49 227.02 80.98 234.79 85.47 227.02 76.49 227.02"/><line class="cls-1" x1="206.4" y1="168.6" x2="206.4" y2="228.33"/><polygon class="cls-2" points="201.92 227.02 206.4 234.79 210.89 227.02 201.92 227.02"/><line class="cls-1" x1="544.55" y1="144.15" x2="544.55" y2="210.88"/><polygon class="cls-2" points="540.07 209.57 544.55 217.34 549.04 209.57 540.07 209.57"/><line class="cls-1" x1="254.36" y1="167.98" x2="254.36" y2="178.37"/><polygon class="cls-2" points="249.87 177.06 254.36 184.83 258.85 177.06 249.87 177.06"/></svg>